# Thin-lens validation: unit square with alternating emissive tiles.
o focus_checkerboard
v -0.500000000 -0.500000000 0
v -0.388888889 -0.500000000 0
v -0.388888889 -0.388888889 0
v -0.500000000 -0.388888889 0
f 1 2 3
f 1 3 4
v -0.277777778 -0.500000000 0
v -0.166666667 -0.500000000 0
v -0.166666667 -0.388888889 0
v -0.277777778 -0.388888889 0
f 5 6 7
f 5 7 8
v -0.055555556 -0.500000000 0
v 0.055555556 -0.500000000 0
v 0.055555556 -0.388888889 0
v -0.055555556 -0.388888889 0
f 9 10 11
f 9 11 12
v 0.166666667 -0.500000000 0
v 0.277777778 -0.500000000 0
v 0.277777778 -0.388888889 0
v 0.166666667 -0.388888889 0
f 13 14 15
f 13 15 16
v 0.388888889 -0.500000000 0
v 0.500000000 -0.500000000 0
v 0.500000000 -0.388888889 0
v 0.388888889 -0.388888889 0
f 17 18 19
f 17 19 20
v -0.388888889 -0.388888889 0
v -0.277777778 -0.388888889 0
v -0.277777778 -0.277777778 0
v -0.388888889 -0.277777778 0
f 21 22 23
f 21 23 24
v -0.166666667 -0.388888889 0
v -0.055555556 -0.388888889 0
v -0.055555556 -0.277777778 0
v -0.166666667 -0.277777778 0
f 25 26 27
f 25 27 28
v 0.055555556 -0.388888889 0
v 0.166666667 -0.388888889 0
v 0.166666667 -0.277777778 0
v 0.055555556 -0.277777778 0
f 29 30 31
f 29 31 32
v 0.277777778 -0.388888889 0
v 0.388888889 -0.388888889 0
v 0.388888889 -0.277777778 0
v 0.277777778 -0.277777778 0
f 33 34 35
f 33 35 36
v -0.500000000 -0.277777778 0
v -0.388888889 -0.277777778 0
v -0.388888889 -0.166666667 0
v -0.500000000 -0.166666667 0
f 37 38 39
f 37 39 40
v -0.277777778 -0.277777778 0
v -0.166666667 -0.277777778 0
v -0.166666667 -0.166666667 0
v -0.277777778 -0.166666667 0
f 41 42 43
f 41 43 44
v -0.055555556 -0.277777778 0
v 0.055555556 -0.277777778 0
v 0.055555556 -0.166666667 0
v -0.055555556 -0.166666667 0
f 45 46 47
f 45 47 48
v 0.166666667 -0.277777778 0
v 0.277777778 -0.277777778 0
v 0.277777778 -0.166666667 0
v 0.166666667 -0.166666667 0
f 49 50 51
f 49 51 52
v 0.388888889 -0.277777778 0
v 0.500000000 -0.277777778 0
v 0.500000000 -0.166666667 0
v 0.388888889 -0.166666667 0
f 53 54 55
f 53 55 56
v -0.388888889 -0.166666667 0
v -0.277777778 -0.166666667 0
v -0.277777778 -0.055555556 0
v -0.388888889 -0.055555556 0
f 57 58 59
f 57 59 60
v -0.166666667 -0.166666667 0
v -0.055555556 -0.166666667 0
v -0.055555556 -0.055555556 0
v -0.166666667 -0.055555556 0
f 61 62 63
f 61 63 64
v 0.055555556 -0.166666667 0
v 0.166666667 -0.166666667 0
v 0.166666667 -0.055555556 0
v 0.055555556 -0.055555556 0
f 65 66 67
f 65 67 68
v 0.277777778 -0.166666667 0
v 0.388888889 -0.166666667 0
v 0.388888889 -0.055555556 0
v 0.277777778 -0.055555556 0
f 69 70 71
f 69 71 72
v -0.500000000 -0.055555556 0
v -0.388888889 -0.055555556 0
v -0.388888889 0.055555556 0
v -0.500000000 0.055555556 0
f 73 74 75
f 73 75 76
v -0.277777778 -0.055555556 0
v -0.166666667 -0.055555556 0
v -0.166666667 0.055555556 0
v -0.277777778 0.055555556 0
f 77 78 79
f 77 79 80
v -0.055555556 -0.055555556 0
v 0.055555556 -0.055555556 0
v 0.055555556 0.055555556 0
v -0.055555556 0.055555556 0
f 81 82 83
f 81 83 84
v 0.166666667 -0.055555556 0
v 0.277777778 -0.055555556 0
v 0.277777778 0.055555556 0
v 0.166666667 0.055555556 0
f 85 86 87
f 85 87 88
v 0.388888889 -0.055555556 0
v 0.500000000 -0.055555556 0
v 0.500000000 0.055555556 0
v 0.388888889 0.055555556 0
f 89 90 91
f 89 91 92
v -0.388888889 0.055555556 0
v -0.277777778 0.055555556 0
v -0.277777778 0.166666667 0
v -0.388888889 0.166666667 0
f 93 94 95
f 93 95 96
v -0.166666667 0.055555556 0
v -0.055555556 0.055555556 0
v -0.055555556 0.166666667 0
v -0.166666667 0.166666667 0
f 97 98 99
f 97 99 100
v 0.055555556 0.055555556 0
v 0.166666667 0.055555556 0
v 0.166666667 0.166666667 0
v 0.055555556 0.166666667 0
f 101 102 103
f 101 103 104
v 0.277777778 0.055555556 0
v 0.388888889 0.055555556 0
v 0.388888889 0.166666667 0
v 0.277777778 0.166666667 0
f 105 106 107
f 105 107 108
v -0.500000000 0.166666667 0
v -0.388888889 0.166666667 0
v -0.388888889 0.277777778 0
v -0.500000000 0.277777778 0
f 109 110 111
f 109 111 112
v -0.277777778 0.166666667 0
v -0.166666667 0.166666667 0
v -0.166666667 0.277777778 0
v -0.277777778 0.277777778 0
f 113 114 115
f 113 115 116
v -0.055555556 0.166666667 0
v 0.055555556 0.166666667 0
v 0.055555556 0.277777778 0
v -0.055555556 0.277777778 0
f 117 118 119
f 117 119 120
v 0.166666667 0.166666667 0
v 0.277777778 0.166666667 0
v 0.277777778 0.277777778 0
v 0.166666667 0.277777778 0
f 121 122 123
f 121 123 124
v 0.388888889 0.166666667 0
v 0.500000000 0.166666667 0
v 0.500000000 0.277777778 0
v 0.388888889 0.277777778 0
f 125 126 127
f 125 127 128
v -0.388888889 0.277777778 0
v -0.277777778 0.277777778 0
v -0.277777778 0.388888889 0
v -0.388888889 0.388888889 0
f 129 130 131
f 129 131 132
v -0.166666667 0.277777778 0
v -0.055555556 0.277777778 0
v -0.055555556 0.388888889 0
v -0.166666667 0.388888889 0
f 133 134 135
f 133 135 136
v 0.055555556 0.277777778 0
v 0.166666667 0.277777778 0
v 0.166666667 0.388888889 0
v 0.055555556 0.388888889 0
f 137 138 139
f 137 139 140
v 0.277777778 0.277777778 0
v 0.388888889 0.277777778 0
v 0.388888889 0.388888889 0
v 0.277777778 0.388888889 0
f 141 142 143
f 141 143 144
v -0.500000000 0.388888889 0
v -0.388888889 0.388888889 0
v -0.388888889 0.500000000 0
v -0.500000000 0.500000000 0
f 145 146 147
f 145 147 148
v -0.277777778 0.388888889 0
v -0.166666667 0.388888889 0
v -0.166666667 0.500000000 0
v -0.277777778 0.500000000 0
f 149 150 151
f 149 151 152
v -0.055555556 0.388888889 0
v 0.055555556 0.388888889 0
v 0.055555556 0.500000000 0
v -0.055555556 0.500000000 0
f 153 154 155
f 153 155 156
v 0.166666667 0.388888889 0
v 0.277777778 0.388888889 0
v 0.277777778 0.500000000 0
v 0.166666667 0.500000000 0
f 157 158 159
f 157 159 160
v 0.388888889 0.388888889 0
v 0.500000000 0.388888889 0
v 0.500000000 0.500000000 0
v 0.388888889 0.500000000 0
f 161 162 163
f 161 163 164
