# Original procedural geometry for the DOF gallery; generated by make_scene.py.
v 1.105000000 0.000000000 0.000000000
v 1.097631397 0.000000000 0.027500000
v 1.077500000 0.000000000 0.047631397
v 1.050000000 0.000000000 0.055000000
v 1.022500000 0.000000000 0.047631397
v 1.002368603 0.000000000 0.027500000
v 0.995000000 0.000000000 0.000000000
v 1.002368603 0.000000000 -0.027500000
v 1.022500000 0.000000000 -0.047631397
v 1.050000000 0.000000000 -0.055000000
v 1.077500000 0.000000000 -0.047631397
v 1.097631397 0.000000000 -0.027500000
v 1.102634110 0.072270458 0.000000000
v 1.095281284 0.071788528 0.027500000
v 1.075192990 0.070471872 0.047631397
v 1.047751869 0.068673286 0.055000000
v 1.020310749 0.066874700 0.047631397
v 1.000222455 0.065558043 0.027500000
v 0.992869629 0.065076114 0.000000000
v 1.000222455 0.065558043 -0.027500000
v 1.020310749 0.066874700 -0.047631397
v 1.047751869 0.068673286 -0.055000000
v 1.075192990 0.070471872 -0.047631397
v 1.095281284 0.071788528 -0.027500000
v 1.095546572 0.144231442 0.000000000
v 1.088241008 0.143269647 0.027500000
v 1.068281838 0.140641972 0.047631397
v 1.041017104 0.137052502 0.055000000
v 1.013752371 0.133463032 0.047631397
v 0.993793200 0.130835357 0.027500000
v 0.986487637 0.129873561 0.000000000
v 0.993793200 0.130835357 -0.027500000
v 1.013752371 0.133463032 -0.047631397
v 1.041017104 0.137052502 -0.055000000
v 1.068281838 0.140641972 -0.047631397
v 1.088241008 0.143269647 -0.027500000
v 1.083767735 0.215574806 0.000000000
v 1.076540718 0.214137263 0.027500000
v 1.056796140 0.210209822 0.047631397
v 1.029824544 0.204844838 0.055000000
v 1.002852949 0.199479854 0.047631397
v 0.983108371 0.195552413 0.027500000
v 0.975881354 0.194114870 0.000000000
v 0.983108371 0.195552413 -0.027500000
v 1.002852949 0.199479854 -0.047631397
v 1.029824544 0.204844838 -0.055000000
v 1.056796140 0.210209822 -0.047631397
v 1.076540718 0.214137263 -0.027500000
v 1.067348038 0.285995045 0.000000000
v 1.060230514 0.284087910 0.027500000
v 1.040785078 0.278877521 0.047631397
v 1.014222118 0.271759997 0.055000000
v 0.987659157 0.264642474 0.047631397
v 0.968213721 0.259432085 0.027500000
v 0.961096197 0.257524950 0.000000000
v 0.968213721 0.259432085 -0.027500000
v 0.987659157 0.264642474 -0.047631397
v 1.014222118 0.271759997 -0.055000000
v 1.040785078 0.278877521 -0.047631397
v 1.060230514 0.284087910 -0.027500000
v 1.046357793 0.355190609 0.000000000
v 1.039380241 0.352822049 0.027500000
v 1.020317215 0.346351024 0.047631397
v 0.994276636 0.337511439 0.055000000
v 0.968236057 0.328671853 0.047631397
v 0.949173031 0.322200828 0.027500000
v 0.942195479 0.319832268 0.000000000
v 0.949173031 0.322200828 -0.027500000
v 0.968236057 0.328671853 -0.047631397
v 0.994276636 0.337511439 -0.055000000
v 1.020317215 0.346351024 -0.047631397
v 1.039380241 0.352822049 -0.027500000
v 1.020886883 0.422865193 0.000000000
v 1.014079182 0.420045351 0.027500000
v 0.995480196 0.412341398 0.047631397
v 0.970073509 0.401817604 0.055000000
v 0.944666822 0.391293810 0.047631397
v 0.926067836 0.383589857 0.027500000
v 0.919260135 0.380770015 0.000000000
v 0.926067836 0.383589857 -0.027500000
v 0.944666822 0.391293810 -0.047631397
v 0.970073509 0.401817604 -0.055000000
v 0.995480196 0.412341398 -0.047631397
v 1.014079182 0.420045351 -0.027500000
v 0.991044379 0.488729003 0.000000000
v 0.984435680 0.485469953 0.027500000
v 0.966380379 0.476566064 0.047631397
v 0.941716379 0.464403125 0.055000000
v 0.917052378 0.452240186 0.047631397
v 0.898997077 0.443336296 0.027500000
v 0.892388378 0.440077247 0.000000000
v 0.898997077 0.443336296 -0.027500000
v 0.917052378 0.452240186 -0.047631397
v 0.941716379 0.464403125 -0.055000000
v 0.966380379 0.476566064 -0.047631397
v 0.984435680 0.485469953 -0.027500000
v 0.956958071 0.552500000 0.000000000
v 0.950576674 0.548815699 0.027500000
v 0.933142373 0.538750000 0.047631397
v 0.909326674 0.525000000 0.055000000
v 0.885510975 0.511250000 0.047631397
v 0.868076674 0.501184301 0.027500000
v 0.861695277 0.497500000 0.000000000
v 0.868076674 0.501184301 -0.027500000
v 0.885510975 0.511250000 -0.047631397
v 0.909326674 0.525000000 -0.055000000
v 0.933142373 0.538750000 -0.047631397
v 0.950576674 0.548815699 -0.027500000
v 0.918773922 0.613905107 0.000000000
v 0.912647152 0.609811331 0.027500000
v 0.895908507 0.598626926 0.047631397
v 0.873043093 0.583348745 0.055000000
v 0.850177679 0.568070563 0.047631397
v 0.833439034 0.556886158 0.027500000
v 0.827312264 0.552792382 0.000000000
v 0.833439034 0.556886158 -0.027500000
v 0.850177679 0.568070563 -0.047631397
v 0.873043093 0.583348745 -0.055000000
v 0.895908507 0.598626926 -0.047631397
v 0.912647152 0.609811331 -0.027500000
v 0.876655441 0.672681379 0.000000000
v 0.870809535 0.668195658 0.027500000
v 0.854838224 0.655940440 0.047631397
v 0.833021007 0.639199500 0.055000000
v 0.811203790 0.622458561 0.047631397
v 0.795232479 0.610203343 0.027500000
v 0.789386574 0.605717622 0.000000000
v 0.795232479 0.610203343 -0.027500000
v 0.811203790 0.622458561 -0.047631397
v 0.833021007 0.639199500 -0.055000000
v 0.854838224 0.655940440 -0.047631397
v 0.870809535 0.668195658 -0.027500000
v 0.830782987 0.728577126 0.000000000
v 0.825242978 0.723718668 0.027500000
v 0.810107393 0.710445116 0.047631397
v 0.789431798 0.692313106 0.055000000
v 0.768756203 0.674181096 0.047631397
v 0.753620617 0.660907543 0.027500000
v 0.748080608 0.656049086 0.000000000
v 0.753620617 0.660907543 -0.027500000
v 0.768756203 0.674181096 -0.047631397
v 0.789431798 0.692313106 -0.055000000
v 0.810107393 0.710445116 -0.047631397
v 0.825242978 0.723718668 -0.027500000
v 0.781352993 0.781352993 0.000000000
v 0.776142604 0.776142604 0.027500000
v 0.761907557 0.761907557 0.047631397
v 0.742462120 0.742462120 0.055000000
v 0.723016684 0.723016684 0.047631397
v 0.708781636 0.708781636 0.027500000
v 0.703571247 0.703571247 0.000000000
v 0.708781636 0.708781636 -0.027500000
v 0.723016684 0.723016684 -0.047631397
v 0.742462120 0.742462120 -0.055000000
v 0.761907557 0.761907557 -0.047631397
v 0.776142604 0.776142604 -0.027500000
v 0.728577126 0.830782987 0.000000000
v 0.723718668 0.825242978 0.027500000
v 0.710445116 0.810107393 0.047631397
v 0.692313106 0.789431798 0.055000000
v 0.674181096 0.768756203 0.047631397
v 0.660907543 0.753620617 0.027500000
v 0.656049086 0.748080608 0.000000000
v 0.660907543 0.753620617 -0.027500000
v 0.674181096 0.768756203 -0.047631397
v 0.692313106 0.789431798 -0.055000000
v 0.710445116 0.810107393 -0.047631397
v 0.723718668 0.825242978 -0.027500000
v 0.672681379 0.876655441 0.000000000
v 0.668195658 0.870809535 0.027500000
v 0.655940440 0.854838224 0.047631397
v 0.639199500 0.833021007 0.055000000
v 0.622458561 0.811203790 0.047631397
v 0.610203343 0.795232479 0.027500000
v 0.605717622 0.789386574 0.000000000
v 0.610203343 0.795232479 -0.027500000
v 0.622458561 0.811203790 -0.047631397
v 0.639199500 0.833021007 -0.055000000
v 0.655940440 0.854838224 -0.047631397
v 0.668195658 0.870809535 -0.027500000
v 0.613905107 0.918773922 0.000000000
v 0.609811331 0.912647152 0.027500000
v 0.598626926 0.895908507 0.047631397
v 0.583348745 0.873043093 0.055000000
v 0.568070563 0.850177679 0.047631397
v 0.556886158 0.833439034 0.027500000
v 0.552792382 0.827312264 0.000000000
v 0.556886158 0.833439034 -0.027500000
v 0.568070563 0.850177679 -0.047631397
v 0.583348745 0.873043093 -0.055000000
v 0.598626926 0.895908507 -0.047631397
v 0.609811331 0.912647152 -0.027500000
v 0.552500000 0.956958071 0.000000000
v 0.548815699 0.950576674 0.027500000
v 0.538750000 0.933142373 0.047631397
v 0.525000000 0.909326674 0.055000000
v 0.511250000 0.885510975 0.047631397
v 0.501184301 0.868076674 0.027500000
v 0.497500000 0.861695277 0.000000000
v 0.501184301 0.868076674 -0.027500000
v 0.511250000 0.885510975 -0.047631397
v 0.525000000 0.909326674 -0.055000000
v 0.538750000 0.933142373 -0.047631397
v 0.548815699 0.950576674 -0.027500000
v 0.488729003 0.991044379 0.000000000
v 0.485469953 0.984435680 0.027500000
v 0.476566064 0.966380379 0.047631397
v 0.464403125 0.941716379 0.055000000
v 0.452240186 0.917052378 0.047631397
v 0.443336296 0.898997077 0.027500000
v 0.440077247 0.892388378 0.000000000
v 0.443336296 0.898997077 -0.027500000
v 0.452240186 0.917052378 -0.047631397
v 0.464403125 0.941716379 -0.055000000
v 0.476566064 0.966380379 -0.047631397
v 0.485469953 0.984435680 -0.027500000
v 0.422865193 1.020886883 0.000000000
v 0.420045351 1.014079182 0.027500000
v 0.412341398 0.995480196 0.047631397
v 0.401817604 0.970073509 0.055000000
v 0.391293810 0.944666822 0.047631397
v 0.383589857 0.926067836 0.027500000
v 0.380770015 0.919260135 0.000000000
v 0.383589857 0.926067836 -0.027500000
v 0.391293810 0.944666822 -0.047631397
v 0.401817604 0.970073509 -0.055000000
v 0.412341398 0.995480196 -0.047631397
v 0.420045351 1.014079182 -0.027500000
v 0.355190609 1.046357793 0.000000000
v 0.352822049 1.039380241 0.027500000
v 0.346351024 1.020317215 0.047631397
v 0.337511439 0.994276636 0.055000000
v 0.328671853 0.968236057 0.047631397
v 0.322200828 0.949173031 0.027500000
v 0.319832268 0.942195479 0.000000000
v 0.322200828 0.949173031 -0.027500000
v 0.328671853 0.968236057 -0.047631397
v 0.337511439 0.994276636 -0.055000000
v 0.346351024 1.020317215 -0.047631397
v 0.352822049 1.039380241 -0.027500000
v 0.285995045 1.067348038 0.000000000
v 0.284087910 1.060230514 0.027500000
v 0.278877521 1.040785078 0.047631397
v 0.271759997 1.014222118 0.055000000
v 0.264642474 0.987659157 0.047631397
v 0.259432085 0.968213721 0.027500000
v 0.257524950 0.961096197 0.000000000
v 0.259432085 0.968213721 -0.027500000
v 0.264642474 0.987659157 -0.047631397
v 0.271759997 1.014222118 -0.055000000
v 0.278877521 1.040785078 -0.047631397
v 0.284087910 1.060230514 -0.027500000
v 0.215574806 1.083767735 0.000000000
v 0.214137263 1.076540718 0.027500000
v 0.210209822 1.056796140 0.047631397
v 0.204844838 1.029824544 0.055000000
v 0.199479854 1.002852949 0.047631397
v 0.195552413 0.983108371 0.027500000
v 0.194114870 0.975881354 0.000000000
v 0.195552413 0.983108371 -0.027500000
v 0.199479854 1.002852949 -0.047631397
v 0.204844838 1.029824544 -0.055000000
v 0.210209822 1.056796140 -0.047631397
v 0.214137263 1.076540718 -0.027500000
v 0.144231442 1.095546572 0.000000000
v 0.143269647 1.088241008 0.027500000
v 0.140641972 1.068281838 0.047631397
v 0.137052502 1.041017104 0.055000000
v 0.133463032 1.013752371 0.047631397
v 0.130835357 0.993793200 0.027500000
v 0.129873561 0.986487637 0.000000000
v 0.130835357 0.993793200 -0.027500000
v 0.133463032 1.013752371 -0.047631397
v 0.137052502 1.041017104 -0.055000000
v 0.140641972 1.068281838 -0.047631397
v 0.143269647 1.088241008 -0.027500000
v 0.072270458 1.102634110 0.000000000
v 0.071788528 1.095281284 0.027500000
v 0.070471872 1.075192990 0.047631397
v 0.068673286 1.047751869 0.055000000
v 0.066874700 1.020310749 0.047631397
v 0.065558043 1.000222455 0.027500000
v 0.065076114 0.992869629 0.000000000
v 0.065558043 1.000222455 -0.027500000
v 0.066874700 1.020310749 -0.047631397
v 0.068673286 1.047751869 -0.055000000
v 0.070471872 1.075192990 -0.047631397
v 0.071788528 1.095281284 -0.027500000
v 0.000000000 1.105000000 0.000000000
v 0.000000000 1.097631397 0.027500000
v 0.000000000 1.077500000 0.047631397
v 0.000000000 1.050000000 0.055000000
v 0.000000000 1.022500000 0.047631397
v 0.000000000 1.002368603 0.027500000
v 0.000000000 0.995000000 0.000000000
v 0.000000000 1.002368603 -0.027500000
v 0.000000000 1.022500000 -0.047631397
v 0.000000000 1.050000000 -0.055000000
v 0.000000000 1.077500000 -0.047631397
v 0.000000000 1.097631397 -0.027500000
v -0.072270458 1.102634110 0.000000000
v -0.071788528 1.095281284 0.027500000
v -0.070471872 1.075192990 0.047631397
v -0.068673286 1.047751869 0.055000000
v -0.066874700 1.020310749 0.047631397
v -0.065558043 1.000222455 0.027500000
v -0.065076114 0.992869629 0.000000000
v -0.065558043 1.000222455 -0.027500000
v -0.066874700 1.020310749 -0.047631397
v -0.068673286 1.047751869 -0.055000000
v -0.070471872 1.075192990 -0.047631397
v -0.071788528 1.095281284 -0.027500000
v -0.144231442 1.095546572 0.000000000
v -0.143269647 1.088241008 0.027500000
v -0.140641972 1.068281838 0.047631397
v -0.137052502 1.041017104 0.055000000
v -0.133463032 1.013752371 0.047631397
v -0.130835357 0.993793200 0.027500000
v -0.129873561 0.986487637 0.000000000
v -0.130835357 0.993793200 -0.027500000
v -0.133463032 1.013752371 -0.047631397
v -0.137052502 1.041017104 -0.055000000
v -0.140641972 1.068281838 -0.047631397
v -0.143269647 1.088241008 -0.027500000
v -0.215574806 1.083767735 0.000000000
v -0.214137263 1.076540718 0.027500000
v -0.210209822 1.056796140 0.047631397
v -0.204844838 1.029824544 0.055000000
v -0.199479854 1.002852949 0.047631397
v -0.195552413 0.983108371 0.027500000
v -0.194114870 0.975881354 0.000000000
v -0.195552413 0.983108371 -0.027500000
v -0.199479854 1.002852949 -0.047631397
v -0.204844838 1.029824544 -0.055000000
v -0.210209822 1.056796140 -0.047631397
v -0.214137263 1.076540718 -0.027500000
v -0.285995045 1.067348038 0.000000000
v -0.284087910 1.060230514 0.027500000
v -0.278877521 1.040785078 0.047631397
v -0.271759997 1.014222118 0.055000000
v -0.264642474 0.987659157 0.047631397
v -0.259432085 0.968213721 0.027500000
v -0.257524950 0.961096197 0.000000000
v -0.259432085 0.968213721 -0.027500000
v -0.264642474 0.987659157 -0.047631397
v -0.271759997 1.014222118 -0.055000000
v -0.278877521 1.040785078 -0.047631397
v -0.284087910 1.060230514 -0.027500000
v -0.355190609 1.046357793 0.000000000
v -0.352822049 1.039380241 0.027500000
v -0.346351024 1.020317215 0.047631397
v -0.337511439 0.994276636 0.055000000
v -0.328671853 0.968236057 0.047631397
v -0.322200828 0.949173031 0.027500000
v -0.319832268 0.942195479 0.000000000
v -0.322200828 0.949173031 -0.027500000
v -0.328671853 0.968236057 -0.047631397
v -0.337511439 0.994276636 -0.055000000
v -0.346351024 1.020317215 -0.047631397
v -0.352822049 1.039380241 -0.027500000
v -0.422865193 1.020886883 0.000000000
v -0.420045351 1.014079182 0.027500000
v -0.412341398 0.995480196 0.047631397
v -0.401817604 0.970073509 0.055000000
v -0.391293810 0.944666822 0.047631397
v -0.383589857 0.926067836 0.027500000
v -0.380770015 0.919260135 0.000000000
v -0.383589857 0.926067836 -0.027500000
v -0.391293810 0.944666822 -0.047631397
v -0.401817604 0.970073509 -0.055000000
v -0.412341398 0.995480196 -0.047631397
v -0.420045351 1.014079182 -0.027500000
v -0.488729003 0.991044379 0.000000000
v -0.485469953 0.984435680 0.027500000
v -0.476566064 0.966380379 0.047631397
v -0.464403125 0.941716379 0.055000000
v -0.452240186 0.917052378 0.047631397
v -0.443336296 0.898997077 0.027500000
v -0.440077247 0.892388378 0.000000000
v -0.443336296 0.898997077 -0.027500000
v -0.452240186 0.917052378 -0.047631397
v -0.464403125 0.941716379 -0.055000000
v -0.476566064 0.966380379 -0.047631397
v -0.485469953 0.984435680 -0.027500000
v -0.552500000 0.956958071 0.000000000
v -0.548815699 0.950576674 0.027500000
v -0.538750000 0.933142373 0.047631397
v -0.525000000 0.909326674 0.055000000
v -0.511250000 0.885510975 0.047631397
v -0.501184301 0.868076674 0.027500000
v -0.497500000 0.861695277 0.000000000
v -0.501184301 0.868076674 -0.027500000
v -0.511250000 0.885510975 -0.047631397
v -0.525000000 0.909326674 -0.055000000
v -0.538750000 0.933142373 -0.047631397
v -0.548815699 0.950576674 -0.027500000
v -0.613905107 0.918773922 0.000000000
v -0.609811331 0.912647152 0.027500000
v -0.598626926 0.895908507 0.047631397
v -0.583348745 0.873043093 0.055000000
v -0.568070563 0.850177679 0.047631397
v -0.556886158 0.833439034 0.027500000
v -0.552792382 0.827312264 0.000000000
v -0.556886158 0.833439034 -0.027500000
v -0.568070563 0.850177679 -0.047631397
v -0.583348745 0.873043093 -0.055000000
v -0.598626926 0.895908507 -0.047631397
v -0.609811331 0.912647152 -0.027500000
v -0.672681379 0.876655441 0.000000000
v -0.668195658 0.870809535 0.027500000
v -0.655940440 0.854838224 0.047631397
v -0.639199500 0.833021007 0.055000000
v -0.622458561 0.811203790 0.047631397
v -0.610203343 0.795232479 0.027500000
v -0.605717622 0.789386574 0.000000000
v -0.610203343 0.795232479 -0.027500000
v -0.622458561 0.811203790 -0.047631397
v -0.639199500 0.833021007 -0.055000000
v -0.655940440 0.854838224 -0.047631397
v -0.668195658 0.870809535 -0.027500000
v -0.728577126 0.830782987 0.000000000
v -0.723718668 0.825242978 0.027500000
v -0.710445116 0.810107393 0.047631397
v -0.692313106 0.789431798 0.055000000
v -0.674181096 0.768756203 0.047631397
v -0.660907543 0.753620617 0.027500000
v -0.656049086 0.748080608 0.000000000
v -0.660907543 0.753620617 -0.027500000
v -0.674181096 0.768756203 -0.047631397
v -0.692313106 0.789431798 -0.055000000
v -0.710445116 0.810107393 -0.047631397
v -0.723718668 0.825242978 -0.027500000
v -0.781352993 0.781352993 0.000000000
v -0.776142604 0.776142604 0.027500000
v -0.761907557 0.761907557 0.047631397
v -0.742462120 0.742462120 0.055000000
v -0.723016684 0.723016684 0.047631397
v -0.708781636 0.708781636 0.027500000
v -0.703571247 0.703571247 0.000000000
v -0.708781636 0.708781636 -0.027500000
v -0.723016684 0.723016684 -0.047631397
v -0.742462120 0.742462120 -0.055000000
v -0.761907557 0.761907557 -0.047631397
v -0.776142604 0.776142604 -0.027500000
v -0.830782987 0.728577126 0.000000000
v -0.825242978 0.723718668 0.027500000
v -0.810107393 0.710445116 0.047631397
v -0.789431798 0.692313106 0.055000000
v -0.768756203 0.674181096 0.047631397
v -0.753620617 0.660907543 0.027500000
v -0.748080608 0.656049086 0.000000000
v -0.753620617 0.660907543 -0.027500000
v -0.768756203 0.674181096 -0.047631397
v -0.789431798 0.692313106 -0.055000000
v -0.810107393 0.710445116 -0.047631397
v -0.825242978 0.723718668 -0.027500000
v -0.876655441 0.672681379 0.000000000
v -0.870809535 0.668195658 0.027500000
v -0.854838224 0.655940440 0.047631397
v -0.833021007 0.639199500 0.055000000
v -0.811203790 0.622458561 0.047631397
v -0.795232479 0.610203343 0.027500000
v -0.789386574 0.605717622 0.000000000
v -0.795232479 0.610203343 -0.027500000
v -0.811203790 0.622458561 -0.047631397
v -0.833021007 0.639199500 -0.055000000
v -0.854838224 0.655940440 -0.047631397
v -0.870809535 0.668195658 -0.027500000
v -0.918773922 0.613905107 0.000000000
v -0.912647152 0.609811331 0.027500000
v -0.895908507 0.598626926 0.047631397
v -0.873043093 0.583348745 0.055000000
v -0.850177679 0.568070563 0.047631397
v -0.833439034 0.556886158 0.027500000
v -0.827312264 0.552792382 0.000000000
v -0.833439034 0.556886158 -0.027500000
v -0.850177679 0.568070563 -0.047631397
v -0.873043093 0.583348745 -0.055000000
v -0.895908507 0.598626926 -0.047631397
v -0.912647152 0.609811331 -0.027500000
v -0.956958071 0.552500000 0.000000000
v -0.950576674 0.548815699 0.027500000
v -0.933142373 0.538750000 0.047631397
v -0.909326674 0.525000000 0.055000000
v -0.885510975 0.511250000 0.047631397
v -0.868076674 0.501184301 0.027500000
v -0.861695277 0.497500000 0.000000000
v -0.868076674 0.501184301 -0.027500000
v -0.885510975 0.511250000 -0.047631397
v -0.909326674 0.525000000 -0.055000000
v -0.933142373 0.538750000 -0.047631397
v -0.950576674 0.548815699 -0.027500000
v -0.991044379 0.488729003 0.000000000
v -0.984435680 0.485469953 0.027500000
v -0.966380379 0.476566064 0.047631397
v -0.941716379 0.464403125 0.055000000
v -0.917052378 0.452240186 0.047631397
v -0.898997077 0.443336296 0.027500000
v -0.892388378 0.440077247 0.000000000
v -0.898997077 0.443336296 -0.027500000
v -0.917052378 0.452240186 -0.047631397
v -0.941716379 0.464403125 -0.055000000
v -0.966380379 0.476566064 -0.047631397
v -0.984435680 0.485469953 -0.027500000
v -1.020886883 0.422865193 0.000000000
v -1.014079182 0.420045351 0.027500000
v -0.995480196 0.412341398 0.047631397
v -0.970073509 0.401817604 0.055000000
v -0.944666822 0.391293810 0.047631397
v -0.926067836 0.383589857 0.027500000
v -0.919260135 0.380770015 0.000000000
v -0.926067836 0.383589857 -0.027500000
v -0.944666822 0.391293810 -0.047631397
v -0.970073509 0.401817604 -0.055000000
v -0.995480196 0.412341398 -0.047631397
v -1.014079182 0.420045351 -0.027500000
v -1.046357793 0.355190609 0.000000000
v -1.039380241 0.352822049 0.027500000
v -1.020317215 0.346351024 0.047631397
v -0.994276636 0.337511439 0.055000000
v -0.968236057 0.328671853 0.047631397
v -0.949173031 0.322200828 0.027500000
v -0.942195479 0.319832268 0.000000000
v -0.949173031 0.322200828 -0.027500000
v -0.968236057 0.328671853 -0.047631397
v -0.994276636 0.337511439 -0.055000000
v -1.020317215 0.346351024 -0.047631397
v -1.039380241 0.352822049 -0.027500000
v -1.067348038 0.285995045 0.000000000
v -1.060230514 0.284087910 0.027500000
v -1.040785078 0.278877521 0.047631397
v -1.014222118 0.271759997 0.055000000
v -0.987659157 0.264642474 0.047631397
v -0.968213721 0.259432085 0.027500000
v -0.961096197 0.257524950 0.000000000
v -0.968213721 0.259432085 -0.027500000
v -0.987659157 0.264642474 -0.047631397
v -1.014222118 0.271759997 -0.055000000
v -1.040785078 0.278877521 -0.047631397
v -1.060230514 0.284087910 -0.027500000
v -1.083767735 0.215574806 0.000000000
v -1.076540718 0.214137263 0.027500000
v -1.056796140 0.210209822 0.047631397
v -1.029824544 0.204844838 0.055000000
v -1.002852949 0.199479854 0.047631397
v -0.983108371 0.195552413 0.027500000
v -0.975881354 0.194114870 0.000000000
v -0.983108371 0.195552413 -0.027500000
v -1.002852949 0.199479854 -0.047631397
v -1.029824544 0.204844838 -0.055000000
v -1.056796140 0.210209822 -0.047631397
v -1.076540718 0.214137263 -0.027500000
v -1.095546572 0.144231442 0.000000000
v -1.088241008 0.143269647 0.027500000
v -1.068281838 0.140641972 0.047631397
v -1.041017104 0.137052502 0.055000000
v -1.013752371 0.133463032 0.047631397
v -0.993793200 0.130835357 0.027500000
v -0.986487637 0.129873561 0.000000000
v -0.993793200 0.130835357 -0.027500000
v -1.013752371 0.133463032 -0.047631397
v -1.041017104 0.137052502 -0.055000000
v -1.068281838 0.140641972 -0.047631397
v -1.088241008 0.143269647 -0.027500000
v -1.102634110 0.072270458 0.000000000
v -1.095281284 0.071788528 0.027500000
v -1.075192990 0.070471872 0.047631397
v -1.047751869 0.068673286 0.055000000
v -1.020310749 0.066874700 0.047631397
v -1.000222455 0.065558043 0.027500000
v -0.992869629 0.065076114 0.000000000
v -1.000222455 0.065558043 -0.027500000
v -1.020310749 0.066874700 -0.047631397
v -1.047751869 0.068673286 -0.055000000
v -1.075192990 0.070471872 -0.047631397
v -1.095281284 0.071788528 -0.027500000
v -1.105000000 0.000000000 0.000000000
v -1.097631397 0.000000000 0.027500000
v -1.077500000 0.000000000 0.047631397
v -1.050000000 0.000000000 0.055000000
v -1.022500000 0.000000000 0.047631397
v -1.002368603 0.000000000 0.027500000
v -0.995000000 0.000000000 0.000000000
v -1.002368603 0.000000000 -0.027500000
v -1.022500000 0.000000000 -0.047631397
v -1.050000000 0.000000000 -0.055000000
v -1.077500000 0.000000000 -0.047631397
v -1.097631397 0.000000000 -0.027500000
v -1.102634110 -0.072270458 0.000000000
v -1.095281284 -0.071788528 0.027500000
v -1.075192990 -0.070471872 0.047631397
v -1.047751869 -0.068673286 0.055000000
v -1.020310749 -0.066874700 0.047631397
v -1.000222455 -0.065558043 0.027500000
v -0.992869629 -0.065076114 0.000000000
v -1.000222455 -0.065558043 -0.027500000
v -1.020310749 -0.066874700 -0.047631397
v -1.047751869 -0.068673286 -0.055000000
v -1.075192990 -0.070471872 -0.047631397
v -1.095281284 -0.071788528 -0.027500000
v -1.095546572 -0.144231442 0.000000000
v -1.088241008 -0.143269647 0.027500000
v -1.068281838 -0.140641972 0.047631397
v -1.041017104 -0.137052502 0.055000000
v -1.013752371 -0.133463032 0.047631397
v -0.993793200 -0.130835357 0.027500000
v -0.986487637 -0.129873561 0.000000000
v -0.993793200 -0.130835357 -0.027500000
v -1.013752371 -0.133463032 -0.047631397
v -1.041017104 -0.137052502 -0.055000000
v -1.068281838 -0.140641972 -0.047631397
v -1.088241008 -0.143269647 -0.027500000
v -1.083767735 -0.215574806 0.000000000
v -1.076540718 -0.214137263 0.027500000
v -1.056796140 -0.210209822 0.047631397
v -1.029824544 -0.204844838 0.055000000
v -1.002852949 -0.199479854 0.047631397
v -0.983108371 -0.195552413 0.027500000
v -0.975881354 -0.194114870 0.000000000
v -0.983108371 -0.195552413 -0.027500000
v -1.002852949 -0.199479854 -0.047631397
v -1.029824544 -0.204844838 -0.055000000
v -1.056796140 -0.210209822 -0.047631397
v -1.076540718 -0.214137263 -0.027500000
v -1.067348038 -0.285995045 0.000000000
v -1.060230514 -0.284087910 0.027500000
v -1.040785078 -0.278877521 0.047631397
v -1.014222118 -0.271759997 0.055000000
v -0.987659157 -0.264642474 0.047631397
v -0.968213721 -0.259432085 0.027500000
v -0.961096197 -0.257524950 0.000000000
v -0.968213721 -0.259432085 -0.027500000
v -0.987659157 -0.264642474 -0.047631397
v -1.014222118 -0.271759997 -0.055000000
v -1.040785078 -0.278877521 -0.047631397
v -1.060230514 -0.284087910 -0.027500000
v -1.046357793 -0.355190609 0.000000000
v -1.039380241 -0.352822049 0.027500000
v -1.020317215 -0.346351024 0.047631397
v -0.994276636 -0.337511439 0.055000000
v -0.968236057 -0.328671853 0.047631397
v -0.949173031 -0.322200828 0.027500000
v -0.942195479 -0.319832268 0.000000000
v -0.949173031 -0.322200828 -0.027500000
v -0.968236057 -0.328671853 -0.047631397
v -0.994276636 -0.337511439 -0.055000000
v -1.020317215 -0.346351024 -0.047631397
v -1.039380241 -0.352822049 -0.027500000
v -1.020886883 -0.422865193 0.000000000
v -1.014079182 -0.420045351 0.027500000
v -0.995480196 -0.412341398 0.047631397
v -0.970073509 -0.401817604 0.055000000
v -0.944666822 -0.391293810 0.047631397
v -0.926067836 -0.383589857 0.027500000
v -0.919260135 -0.380770015 0.000000000
v -0.926067836 -0.383589857 -0.027500000
v -0.944666822 -0.391293810 -0.047631397
v -0.970073509 -0.401817604 -0.055000000
v -0.995480196 -0.412341398 -0.047631397
v -1.014079182 -0.420045351 -0.027500000
v -0.991044379 -0.488729003 0.000000000
v -0.984435680 -0.485469953 0.027500000
v -0.966380379 -0.476566064 0.047631397
v -0.941716379 -0.464403125 0.055000000
v -0.917052378 -0.452240186 0.047631397
v -0.898997077 -0.443336296 0.027500000
v -0.892388378 -0.440077247 0.000000000
v -0.898997077 -0.443336296 -0.027500000
v -0.917052378 -0.452240186 -0.047631397
v -0.941716379 -0.464403125 -0.055000000
v -0.966380379 -0.476566064 -0.047631397
v -0.984435680 -0.485469953 -0.027500000
v -0.956958071 -0.552500000 0.000000000
v -0.950576674 -0.548815699 0.027500000
v -0.933142373 -0.538750000 0.047631397
v -0.909326674 -0.525000000 0.055000000
v -0.885510975 -0.511250000 0.047631397
v -0.868076674 -0.501184301 0.027500000
v -0.861695277 -0.497500000 0.000000000
v -0.868076674 -0.501184301 -0.027500000
v -0.885510975 -0.511250000 -0.047631397
v -0.909326674 -0.525000000 -0.055000000
v -0.933142373 -0.538750000 -0.047631397
v -0.950576674 -0.548815699 -0.027500000
v -0.918773922 -0.613905107 0.000000000
v -0.912647152 -0.609811331 0.027500000
v -0.895908507 -0.598626926 0.047631397
v -0.873043093 -0.583348745 0.055000000
v -0.850177679 -0.568070563 0.047631397
v -0.833439034 -0.556886158 0.027500000
v -0.827312264 -0.552792382 0.000000000
v -0.833439034 -0.556886158 -0.027500000
v -0.850177679 -0.568070563 -0.047631397
v -0.873043093 -0.583348745 -0.055000000
v -0.895908507 -0.598626926 -0.047631397
v -0.912647152 -0.609811331 -0.027500000
v -0.876655441 -0.672681379 0.000000000
v -0.870809535 -0.668195658 0.027500000
v -0.854838224 -0.655940440 0.047631397
v -0.833021007 -0.639199500 0.055000000
v -0.811203790 -0.622458561 0.047631397
v -0.795232479 -0.610203343 0.027500000
v -0.789386574 -0.605717622 0.000000000
v -0.795232479 -0.610203343 -0.027500000
v -0.811203790 -0.622458561 -0.047631397
v -0.833021007 -0.639199500 -0.055000000
v -0.854838224 -0.655940440 -0.047631397
v -0.870809535 -0.668195658 -0.027500000
v -0.830782987 -0.728577126 0.000000000
v -0.825242978 -0.723718668 0.027500000
v -0.810107393 -0.710445116 0.047631397
v -0.789431798 -0.692313106 0.055000000
v -0.768756203 -0.674181096 0.047631397
v -0.753620617 -0.660907543 0.027500000
v -0.748080608 -0.656049086 0.000000000
v -0.753620617 -0.660907543 -0.027500000
v -0.768756203 -0.674181096 -0.047631397
v -0.789431798 -0.692313106 -0.055000000
v -0.810107393 -0.710445116 -0.047631397
v -0.825242978 -0.723718668 -0.027500000
v -0.781352993 -0.781352993 0.000000000
v -0.776142604 -0.776142604 0.027500000
v -0.761907557 -0.761907557 0.047631397
v -0.742462120 -0.742462120 0.055000000
v -0.723016684 -0.723016684 0.047631397
v -0.708781636 -0.708781636 0.027500000
v -0.703571247 -0.703571247 0.000000000
v -0.708781636 -0.708781636 -0.027500000
v -0.723016684 -0.723016684 -0.047631397
v -0.742462120 -0.742462120 -0.055000000
v -0.761907557 -0.761907557 -0.047631397
v -0.776142604 -0.776142604 -0.027500000
v -0.728577126 -0.830782987 0.000000000
v -0.723718668 -0.825242978 0.027500000
v -0.710445116 -0.810107393 0.047631397
v -0.692313106 -0.789431798 0.055000000
v -0.674181096 -0.768756203 0.047631397
v -0.660907543 -0.753620617 0.027500000
v -0.656049086 -0.748080608 0.000000000
v -0.660907543 -0.753620617 -0.027500000
v -0.674181096 -0.768756203 -0.047631397
v -0.692313106 -0.789431798 -0.055000000
v -0.710445116 -0.810107393 -0.047631397
v -0.723718668 -0.825242978 -0.027500000
v -0.672681379 -0.876655441 0.000000000
v -0.668195658 -0.870809535 0.027500000
v -0.655940440 -0.854838224 0.047631397
v -0.639199500 -0.833021007 0.055000000
v -0.622458561 -0.811203790 0.047631397
v -0.610203343 -0.795232479 0.027500000
v -0.605717622 -0.789386574 0.000000000
v -0.610203343 -0.795232479 -0.027500000
v -0.622458561 -0.811203790 -0.047631397
v -0.639199500 -0.833021007 -0.055000000
v -0.655940440 -0.854838224 -0.047631397
v -0.668195658 -0.870809535 -0.027500000
v -0.613905107 -0.918773922 0.000000000
v -0.609811331 -0.912647152 0.027500000
v -0.598626926 -0.895908507 0.047631397
v -0.583348745 -0.873043093 0.055000000
v -0.568070563 -0.850177679 0.047631397
v -0.556886158 -0.833439034 0.027500000
v -0.552792382 -0.827312264 0.000000000
v -0.556886158 -0.833439034 -0.027500000
v -0.568070563 -0.850177679 -0.047631397
v -0.583348745 -0.873043093 -0.055000000
v -0.598626926 -0.895908507 -0.047631397
v -0.609811331 -0.912647152 -0.027500000
v -0.552500000 -0.956958071 0.000000000
v -0.548815699 -0.950576674 0.027500000
v -0.538750000 -0.933142373 0.047631397
v -0.525000000 -0.909326674 0.055000000
v -0.511250000 -0.885510975 0.047631397
v -0.501184301 -0.868076674 0.027500000
v -0.497500000 -0.861695277 0.000000000
v -0.501184301 -0.868076674 -0.027500000
v -0.511250000 -0.885510975 -0.047631397
v -0.525000000 -0.909326674 -0.055000000
v -0.538750000 -0.933142373 -0.047631397
v -0.548815699 -0.950576674 -0.027500000
v -0.488729003 -0.991044379 0.000000000
v -0.485469953 -0.984435680 0.027500000
v -0.476566064 -0.966380379 0.047631397
v -0.464403125 -0.941716379 0.055000000
v -0.452240186 -0.917052378 0.047631397
v -0.443336296 -0.898997077 0.027500000
v -0.440077247 -0.892388378 0.000000000
v -0.443336296 -0.898997077 -0.027500000
v -0.452240186 -0.917052378 -0.047631397
v -0.464403125 -0.941716379 -0.055000000
v -0.476566064 -0.966380379 -0.047631397
v -0.485469953 -0.984435680 -0.027500000
v -0.422865193 -1.020886883 0.000000000
v -0.420045351 -1.014079182 0.027500000
v -0.412341398 -0.995480196 0.047631397
v -0.401817604 -0.970073509 0.055000000
v -0.391293810 -0.944666822 0.047631397
v -0.383589857 -0.926067836 0.027500000
v -0.380770015 -0.919260135 0.000000000
v -0.383589857 -0.926067836 -0.027500000
v -0.391293810 -0.944666822 -0.047631397
v -0.401817604 -0.970073509 -0.055000000
v -0.412341398 -0.995480196 -0.047631397
v -0.420045351 -1.014079182 -0.027500000
v -0.355190609 -1.046357793 0.000000000
v -0.352822049 -1.039380241 0.027500000
v -0.346351024 -1.020317215 0.047631397
v -0.337511439 -0.994276636 0.055000000
v -0.328671853 -0.968236057 0.047631397
v -0.322200828 -0.949173031 0.027500000
v -0.319832268 -0.942195479 0.000000000
v -0.322200828 -0.949173031 -0.027500000
v -0.328671853 -0.968236057 -0.047631397
v -0.337511439 -0.994276636 -0.055000000
v -0.346351024 -1.020317215 -0.047631397
v -0.352822049 -1.039380241 -0.027500000
v -0.285995045 -1.067348038 0.000000000
v -0.284087910 -1.060230514 0.027500000
v -0.278877521 -1.040785078 0.047631397
v -0.271759997 -1.014222118 0.055000000
v -0.264642474 -0.987659157 0.047631397
v -0.259432085 -0.968213721 0.027500000
v -0.257524950 -0.961096197 0.000000000
v -0.259432085 -0.968213721 -0.027500000
v -0.264642474 -0.987659157 -0.047631397
v -0.271759997 -1.014222118 -0.055000000
v -0.278877521 -1.040785078 -0.047631397
v -0.284087910 -1.060230514 -0.027500000
v -0.215574806 -1.083767735 0.000000000
v -0.214137263 -1.076540718 0.027500000
v -0.210209822 -1.056796140 0.047631397
v -0.204844838 -1.029824544 0.055000000
v -0.199479854 -1.002852949 0.047631397
v -0.195552413 -0.983108371 0.027500000
v -0.194114870 -0.975881354 0.000000000
v -0.195552413 -0.983108371 -0.027500000
v -0.199479854 -1.002852949 -0.047631397
v -0.204844838 -1.029824544 -0.055000000
v -0.210209822 -1.056796140 -0.047631397
v -0.214137263 -1.076540718 -0.027500000
v -0.144231442 -1.095546572 0.000000000
v -0.143269647 -1.088241008 0.027500000
v -0.140641972 -1.068281838 0.047631397
v -0.137052502 -1.041017104 0.055000000
v -0.133463032 -1.013752371 0.047631397
v -0.130835357 -0.993793200 0.027500000
v -0.129873561 -0.986487637 0.000000000
v -0.130835357 -0.993793200 -0.027500000
v -0.133463032 -1.013752371 -0.047631397
v -0.137052502 -1.041017104 -0.055000000
v -0.140641972 -1.068281838 -0.047631397
v -0.143269647 -1.088241008 -0.027500000
v -0.072270458 -1.102634110 0.000000000
v -0.071788528 -1.095281284 0.027500000
v -0.070471872 -1.075192990 0.047631397
v -0.068673286 -1.047751869 0.055000000
v -0.066874700 -1.020310749 0.047631397
v -0.065558043 -1.000222455 0.027500000
v -0.065076114 -0.992869629 0.000000000
v -0.065558043 -1.000222455 -0.027500000
v -0.066874700 -1.020310749 -0.047631397
v -0.068673286 -1.047751869 -0.055000000
v -0.070471872 -1.075192990 -0.047631397
v -0.071788528 -1.095281284 -0.027500000
v -0.000000000 -1.105000000 0.000000000
v -0.000000000 -1.097631397 0.027500000
v -0.000000000 -1.077500000 0.047631397
v -0.000000000 -1.050000000 0.055000000
v -0.000000000 -1.022500000 0.047631397
v -0.000000000 -1.002368603 0.027500000
v -0.000000000 -0.995000000 0.000000000
v -0.000000000 -1.002368603 -0.027500000
v -0.000000000 -1.022500000 -0.047631397
v -0.000000000 -1.050000000 -0.055000000
v -0.000000000 -1.077500000 -0.047631397
v -0.000000000 -1.097631397 -0.027500000
v 0.072270458 -1.102634110 0.000000000
v 0.071788528 -1.095281284 0.027500000
v 0.070471872 -1.075192990 0.047631397
v 0.068673286 -1.047751869 0.055000000
v 0.066874700 -1.020310749 0.047631397
v 0.065558043 -1.000222455 0.027500000
v 0.065076114 -0.992869629 0.000000000
v 0.065558043 -1.000222455 -0.027500000
v 0.066874700 -1.020310749 -0.047631397
v 0.068673286 -1.047751869 -0.055000000
v 0.070471872 -1.075192990 -0.047631397
v 0.071788528 -1.095281284 -0.027500000
v 0.144231442 -1.095546572 0.000000000
v 0.143269647 -1.088241008 0.027500000
v 0.140641972 -1.068281838 0.047631397
v 0.137052502 -1.041017104 0.055000000
v 0.133463032 -1.013752371 0.047631397
v 0.130835357 -0.993793200 0.027500000
v 0.129873561 -0.986487637 0.000000000
v 0.130835357 -0.993793200 -0.027500000
v 0.133463032 -1.013752371 -0.047631397
v 0.137052502 -1.041017104 -0.055000000
v 0.140641972 -1.068281838 -0.047631397
v 0.143269647 -1.088241008 -0.027500000
v 0.215574806 -1.083767735 0.000000000
v 0.214137263 -1.076540718 0.027500000
v 0.210209822 -1.056796140 0.047631397
v 0.204844838 -1.029824544 0.055000000
v 0.199479854 -1.002852949 0.047631397
v 0.195552413 -0.983108371 0.027500000
v 0.194114870 -0.975881354 0.000000000
v 0.195552413 -0.983108371 -0.027500000
v 0.199479854 -1.002852949 -0.047631397
v 0.204844838 -1.029824544 -0.055000000
v 0.210209822 -1.056796140 -0.047631397
v 0.214137263 -1.076540718 -0.027500000
v 0.285995045 -1.067348038 0.000000000
v 0.284087910 -1.060230514 0.027500000
v 0.278877521 -1.040785078 0.047631397
v 0.271759997 -1.014222118 0.055000000
v 0.264642474 -0.987659157 0.047631397
v 0.259432085 -0.968213721 0.027500000
v 0.257524950 -0.961096197 0.000000000
v 0.259432085 -0.968213721 -0.027500000
v 0.264642474 -0.987659157 -0.047631397
v 0.271759997 -1.014222118 -0.055000000
v 0.278877521 -1.040785078 -0.047631397
v 0.284087910 -1.060230514 -0.027500000
v 0.355190609 -1.046357793 0.000000000
v 0.352822049 -1.039380241 0.027500000
v 0.346351024 -1.020317215 0.047631397
v 0.337511439 -0.994276636 0.055000000
v 0.328671853 -0.968236057 0.047631397
v 0.322200828 -0.949173031 0.027500000
v 0.319832268 -0.942195479 0.000000000
v 0.322200828 -0.949173031 -0.027500000
v 0.328671853 -0.968236057 -0.047631397
v 0.337511439 -0.994276636 -0.055000000
v 0.346351024 -1.020317215 -0.047631397
v 0.352822049 -1.039380241 -0.027500000
v 0.422865193 -1.020886883 0.000000000
v 0.420045351 -1.014079182 0.027500000
v 0.412341398 -0.995480196 0.047631397
v 0.401817604 -0.970073509 0.055000000
v 0.391293810 -0.944666822 0.047631397
v 0.383589857 -0.926067836 0.027500000
v 0.380770015 -0.919260135 0.000000000
v 0.383589857 -0.926067836 -0.027500000
v 0.391293810 -0.944666822 -0.047631397
v 0.401817604 -0.970073509 -0.055000000
v 0.412341398 -0.995480196 -0.047631397
v 0.420045351 -1.014079182 -0.027500000
v 0.488729003 -0.991044379 0.000000000
v 0.485469953 -0.984435680 0.027500000
v 0.476566064 -0.966380379 0.047631397
v 0.464403125 -0.941716379 0.055000000
v 0.452240186 -0.917052378 0.047631397
v 0.443336296 -0.898997077 0.027500000
v 0.440077247 -0.892388378 0.000000000
v 0.443336296 -0.898997077 -0.027500000
v 0.452240186 -0.917052378 -0.047631397
v 0.464403125 -0.941716379 -0.055000000
v 0.476566064 -0.966380379 -0.047631397
v 0.485469953 -0.984435680 -0.027500000
v 0.552500000 -0.956958071 0.000000000
v 0.548815699 -0.950576674 0.027500000
v 0.538750000 -0.933142373 0.047631397
v 0.525000000 -0.909326674 0.055000000
v 0.511250000 -0.885510975 0.047631397
v 0.501184301 -0.868076674 0.027500000
v 0.497500000 -0.861695277 0.000000000
v 0.501184301 -0.868076674 -0.027500000
v 0.511250000 -0.885510975 -0.047631397
v 0.525000000 -0.909326674 -0.055000000
v 0.538750000 -0.933142373 -0.047631397
v 0.548815699 -0.950576674 -0.027500000
v 0.613905107 -0.918773922 0.000000000
v 0.609811331 -0.912647152 0.027500000
v 0.598626926 -0.895908507 0.047631397
v 0.583348745 -0.873043093 0.055000000
v 0.568070563 -0.850177679 0.047631397
v 0.556886158 -0.833439034 0.027500000
v 0.552792382 -0.827312264 0.000000000
v 0.556886158 -0.833439034 -0.027500000
v 0.568070563 -0.850177679 -0.047631397
v 0.583348745 -0.873043093 -0.055000000
v 0.598626926 -0.895908507 -0.047631397
v 0.609811331 -0.912647152 -0.027500000
v 0.672681379 -0.876655441 0.000000000
v 0.668195658 -0.870809535 0.027500000
v 0.655940440 -0.854838224 0.047631397
v 0.639199500 -0.833021007 0.055000000
v 0.622458561 -0.811203790 0.047631397
v 0.610203343 -0.795232479 0.027500000
v 0.605717622 -0.789386574 0.000000000
v 0.610203343 -0.795232479 -0.027500000
v 0.622458561 -0.811203790 -0.047631397
v 0.639199500 -0.833021007 -0.055000000
v 0.655940440 -0.854838224 -0.047631397
v 0.668195658 -0.870809535 -0.027500000
v 0.728577126 -0.830782987 0.000000000
v 0.723718668 -0.825242978 0.027500000
v 0.710445116 -0.810107393 0.047631397
v 0.692313106 -0.789431798 0.055000000
v 0.674181096 -0.768756203 0.047631397
v 0.660907543 -0.753620617 0.027500000
v 0.656049086 -0.748080608 0.000000000
v 0.660907543 -0.753620617 -0.027500000
v 0.674181096 -0.768756203 -0.047631397
v 0.692313106 -0.789431798 -0.055000000
v 0.710445116 -0.810107393 -0.047631397
v 0.723718668 -0.825242978 -0.027500000
v 0.781352993 -0.781352993 0.000000000
v 0.776142604 -0.776142604 0.027500000
v 0.761907557 -0.761907557 0.047631397
v 0.742462120 -0.742462120 0.055000000
v 0.723016684 -0.723016684 0.047631397
v 0.708781636 -0.708781636 0.027500000
v 0.703571247 -0.703571247 0.000000000
v 0.708781636 -0.708781636 -0.027500000
v 0.723016684 -0.723016684 -0.047631397
v 0.742462120 -0.742462120 -0.055000000
v 0.761907557 -0.761907557 -0.047631397
v 0.776142604 -0.776142604 -0.027500000
v 0.830782987 -0.728577126 0.000000000
v 0.825242978 -0.723718668 0.027500000
v 0.810107393 -0.710445116 0.047631397
v 0.789431798 -0.692313106 0.055000000
v 0.768756203 -0.674181096 0.047631397
v 0.753620617 -0.660907543 0.027500000
v 0.748080608 -0.656049086 0.000000000
v 0.753620617 -0.660907543 -0.027500000
v 0.768756203 -0.674181096 -0.047631397
v 0.789431798 -0.692313106 -0.055000000
v 0.810107393 -0.710445116 -0.047631397
v 0.825242978 -0.723718668 -0.027500000
v 0.876655441 -0.672681379 0.000000000
v 0.870809535 -0.668195658 0.027500000
v 0.854838224 -0.655940440 0.047631397
v 0.833021007 -0.639199500 0.055000000
v 0.811203790 -0.622458561 0.047631397
v 0.795232479 -0.610203343 0.027500000
v 0.789386574 -0.605717622 0.000000000
v 0.795232479 -0.610203343 -0.027500000
v 0.811203790 -0.622458561 -0.047631397
v 0.833021007 -0.639199500 -0.055000000
v 0.854838224 -0.655940440 -0.047631397
v 0.870809535 -0.668195658 -0.027500000
v 0.918773922 -0.613905107 0.000000000
v 0.912647152 -0.609811331 0.027500000
v 0.895908507 -0.598626926 0.047631397
v 0.873043093 -0.583348745 0.055000000
v 0.850177679 -0.568070563 0.047631397
v 0.833439034 -0.556886158 0.027500000
v 0.827312264 -0.552792382 0.000000000
v 0.833439034 -0.556886158 -0.027500000
v 0.850177679 -0.568070563 -0.047631397
v 0.873043093 -0.583348745 -0.055000000
v 0.895908507 -0.598626926 -0.047631397
v 0.912647152 -0.609811331 -0.027500000
v 0.956958071 -0.552500000 0.000000000
v 0.950576674 -0.548815699 0.027500000
v 0.933142373 -0.538750000 0.047631397
v 0.909326674 -0.525000000 0.055000000
v 0.885510975 -0.511250000 0.047631397
v 0.868076674 -0.501184301 0.027500000
v 0.861695277 -0.497500000 0.000000000
v 0.868076674 -0.501184301 -0.027500000
v 0.885510975 -0.511250000 -0.047631397
v 0.909326674 -0.525000000 -0.055000000
v 0.933142373 -0.538750000 -0.047631397
v 0.950576674 -0.548815699 -0.027500000
v 0.991044379 -0.488729003 0.000000000
v 0.984435680 -0.485469953 0.027500000
v 0.966380379 -0.476566064 0.047631397
v 0.941716379 -0.464403125 0.055000000
v 0.917052378 -0.452240186 0.047631397
v 0.898997077 -0.443336296 0.027500000
v 0.892388378 -0.440077247 0.000000000
v 0.898997077 -0.443336296 -0.027500000
v 0.917052378 -0.452240186 -0.047631397
v 0.941716379 -0.464403125 -0.055000000
v 0.966380379 -0.476566064 -0.047631397
v 0.984435680 -0.485469953 -0.027500000
v 1.020886883 -0.422865193 0.000000000
v 1.014079182 -0.420045351 0.027500000
v 0.995480196 -0.412341398 0.047631397
v 0.970073509 -0.401817604 0.055000000
v 0.944666822 -0.391293810 0.047631397
v 0.926067836 -0.383589857 0.027500000
v 0.919260135 -0.380770015 0.000000000
v 0.926067836 -0.383589857 -0.027500000
v 0.944666822 -0.391293810 -0.047631397
v 0.970073509 -0.401817604 -0.055000000
v 0.995480196 -0.412341398 -0.047631397
v 1.014079182 -0.420045351 -0.027500000
v 1.046357793 -0.355190609 0.000000000
v 1.039380241 -0.352822049 0.027500000
v 1.020317215 -0.346351024 0.047631397
v 0.994276636 -0.337511439 0.055000000
v 0.968236057 -0.328671853 0.047631397
v 0.949173031 -0.322200828 0.027500000
v 0.942195479 -0.319832268 0.000000000
v 0.949173031 -0.322200828 -0.027500000
v 0.968236057 -0.328671853 -0.047631397
v 0.994276636 -0.337511439 -0.055000000
v 1.020317215 -0.346351024 -0.047631397
v 1.039380241 -0.352822049 -0.027500000
v 1.067348038 -0.285995045 0.000000000
v 1.060230514 -0.284087910 0.027500000
v 1.040785078 -0.278877521 0.047631397
v 1.014222118 -0.271759997 0.055000000
v 0.987659157 -0.264642474 0.047631397
v 0.968213721 -0.259432085 0.027500000
v 0.961096197 -0.257524950 0.000000000
v 0.968213721 -0.259432085 -0.027500000
v 0.987659157 -0.264642474 -0.047631397
v 1.014222118 -0.271759997 -0.055000000
v 1.040785078 -0.278877521 -0.047631397
v 1.060230514 -0.284087910 -0.027500000
v 1.083767735 -0.215574806 0.000000000
v 1.076540718 -0.214137263 0.027500000
v 1.056796140 -0.210209822 0.047631397
v 1.029824544 -0.204844838 0.055000000
v 1.002852949 -0.199479854 0.047631397
v 0.983108371 -0.195552413 0.027500000
v 0.975881354 -0.194114870 0.000000000
v 0.983108371 -0.195552413 -0.027500000
v 1.002852949 -0.199479854 -0.047631397
v 1.029824544 -0.204844838 -0.055000000
v 1.056796140 -0.210209822 -0.047631397
v 1.076540718 -0.214137263 -0.027500000
v 1.095546572 -0.144231442 0.000000000
v 1.088241008 -0.143269647 0.027500000
v 1.068281838 -0.140641972 0.047631397
v 1.041017104 -0.137052502 0.055000000
v 1.013752371 -0.133463032 0.047631397
v 0.993793200 -0.130835357 0.027500000
v 0.986487637 -0.129873561 0.000000000
v 0.993793200 -0.130835357 -0.027500000
v 1.013752371 -0.133463032 -0.047631397
v 1.041017104 -0.137052502 -0.055000000
v 1.068281838 -0.140641972 -0.047631397
v 1.088241008 -0.143269647 -0.027500000
v 1.102634110 -0.072270458 0.000000000
v 1.095281284 -0.071788528 0.027500000
v 1.075192990 -0.070471872 0.047631397
v 1.047751869 -0.068673286 0.055000000
v 1.020310749 -0.066874700 0.047631397
v 1.000222455 -0.065558043 0.027500000
v 0.992869629 -0.065076114 0.000000000
v 1.000222455 -0.065558043 -0.027500000
v 1.020310749 -0.066874700 -0.047631397
v 1.047751869 -0.068673286 -0.055000000
v 1.075192990 -0.070471872 -0.047631397
v 1.095281284 -0.071788528 -0.027500000
f 1 13 14
f 1 14 2
f 2 14 15
f 2 15 3
f 3 15 16
f 3 16 4
f 4 16 17
f 4 17 5
f 5 17 18
f 5 18 6
f 6 18 19
f 6 19 7
f 7 19 20
f 7 20 8
f 8 20 21
f 8 21 9
f 9 21 22
f 9 22 10
f 10 22 23
f 10 23 11
f 11 23 24
f 11 24 12
f 12 24 13
f 12 13 1
f 13 25 26
f 13 26 14
f 14 26 27
f 14 27 15
f 15 27 28
f 15 28 16
f 16 28 29
f 16 29 17
f 17 29 30
f 17 30 18
f 18 30 31
f 18 31 19
f 19 31 32
f 19 32 20
f 20 32 33
f 20 33 21
f 21 33 34
f 21 34 22
f 22 34 35
f 22 35 23
f 23 35 36
f 23 36 24
f 24 36 25
f 24 25 13
f 25 37 38
f 25 38 26
f 26 38 39
f 26 39 27
f 27 39 40
f 27 40 28
f 28 40 41
f 28 41 29
f 29 41 42
f 29 42 30
f 30 42 43
f 30 43 31
f 31 43 44
f 31 44 32
f 32 44 45
f 32 45 33
f 33 45 46
f 33 46 34
f 34 46 47
f 34 47 35
f 35 47 48
f 35 48 36
f 36 48 37
f 36 37 25
f 37 49 50
f 37 50 38
f 38 50 51
f 38 51 39
f 39 51 52
f 39 52 40
f 40 52 53
f 40 53 41
f 41 53 54
f 41 54 42
f 42 54 55
f 42 55 43
f 43 55 56
f 43 56 44
f 44 56 57
f 44 57 45
f 45 57 58
f 45 58 46
f 46 58 59
f 46 59 47
f 47 59 60
f 47 60 48
f 48 60 49
f 48 49 37
f 49 61 62
f 49 62 50
f 50 62 63
f 50 63 51
f 51 63 64
f 51 64 52
f 52 64 65
f 52 65 53
f 53 65 66
f 53 66 54
f 54 66 67
f 54 67 55
f 55 67 68
f 55 68 56
f 56 68 69
f 56 69 57
f 57 69 70
f 57 70 58
f 58 70 71
f 58 71 59
f 59 71 72
f 59 72 60
f 60 72 61
f 60 61 49
f 61 73 74
f 61 74 62
f 62 74 75
f 62 75 63
f 63 75 76
f 63 76 64
f 64 76 77
f 64 77 65
f 65 77 78
f 65 78 66
f 66 78 79
f 66 79 67
f 67 79 80
f 67 80 68
f 68 80 81
f 68 81 69
f 69 81 82
f 69 82 70
f 70 82 83
f 70 83 71
f 71 83 84
f 71 84 72
f 72 84 73
f 72 73 61
f 73 85 86
f 73 86 74
f 74 86 87
f 74 87 75
f 75 87 88
f 75 88 76
f 76 88 89
f 76 89 77
f 77 89 90
f 77 90 78
f 78 90 91
f 78 91 79
f 79 91 92
f 79 92 80
f 80 92 93
f 80 93 81
f 81 93 94
f 81 94 82
f 82 94 95
f 82 95 83
f 83 95 96
f 83 96 84
f 84 96 85
f 84 85 73
f 85 97 98
f 85 98 86
f 86 98 99
f 86 99 87
f 87 99 100
f 87 100 88
f 88 100 101
f 88 101 89
f 89 101 102
f 89 102 90
f 90 102 103
f 90 103 91
f 91 103 104
f 91 104 92
f 92 104 105
f 92 105 93
f 93 105 106
f 93 106 94
f 94 106 107
f 94 107 95
f 95 107 108
f 95 108 96
f 96 108 97
f 96 97 85
f 97 109 110
f 97 110 98
f 98 110 111
f 98 111 99
f 99 111 112
f 99 112 100
f 100 112 113
f 100 113 101
f 101 113 114
f 101 114 102
f 102 114 115
f 102 115 103
f 103 115 116
f 103 116 104
f 104 116 117
f 104 117 105
f 105 117 118
f 105 118 106
f 106 118 119
f 106 119 107
f 107 119 120
f 107 120 108
f 108 120 109
f 108 109 97
f 109 121 122
f 109 122 110
f 110 122 123
f 110 123 111
f 111 123 124
f 111 124 112
f 112 124 125
f 112 125 113
f 113 125 126
f 113 126 114
f 114 126 127
f 114 127 115
f 115 127 128
f 115 128 116
f 116 128 129
f 116 129 117
f 117 129 130
f 117 130 118
f 118 130 131
f 118 131 119
f 119 131 132
f 119 132 120
f 120 132 121
f 120 121 109
f 121 133 134
f 121 134 122
f 122 134 135
f 122 135 123
f 123 135 136
f 123 136 124
f 124 136 137
f 124 137 125
f 125 137 138
f 125 138 126
f 126 138 139
f 126 139 127
f 127 139 140
f 127 140 128
f 128 140 141
f 128 141 129
f 129 141 142
f 129 142 130
f 130 142 143
f 130 143 131
f 131 143 144
f 131 144 132
f 132 144 133
f 132 133 121
f 133 145 146
f 133 146 134
f 134 146 147
f 134 147 135
f 135 147 148
f 135 148 136
f 136 148 149
f 136 149 137
f 137 149 150
f 137 150 138
f 138 150 151
f 138 151 139
f 139 151 152
f 139 152 140
f 140 152 153
f 140 153 141
f 141 153 154
f 141 154 142
f 142 154 155
f 142 155 143
f 143 155 156
f 143 156 144
f 144 156 145
f 144 145 133
f 145 157 158
f 145 158 146
f 146 158 159
f 146 159 147
f 147 159 160
f 147 160 148
f 148 160 161
f 148 161 149
f 149 161 162
f 149 162 150
f 150 162 163
f 150 163 151
f 151 163 164
f 151 164 152
f 152 164 165
f 152 165 153
f 153 165 166
f 153 166 154
f 154 166 167
f 154 167 155
f 155 167 168
f 155 168 156
f 156 168 157
f 156 157 145
f 157 169 170
f 157 170 158
f 158 170 171
f 158 171 159
f 159 171 172
f 159 172 160
f 160 172 173
f 160 173 161
f 161 173 174
f 161 174 162
f 162 174 175
f 162 175 163
f 163 175 176
f 163 176 164
f 164 176 177
f 164 177 165
f 165 177 178
f 165 178 166
f 166 178 179
f 166 179 167
f 167 179 180
f 167 180 168
f 168 180 169
f 168 169 157
f 169 181 182
f 169 182 170
f 170 182 183
f 170 183 171
f 171 183 184
f 171 184 172
f 172 184 185
f 172 185 173
f 173 185 186
f 173 186 174
f 174 186 187
f 174 187 175
f 175 187 188
f 175 188 176
f 176 188 189
f 176 189 177
f 177 189 190
f 177 190 178
f 178 190 191
f 178 191 179
f 179 191 192
f 179 192 180
f 180 192 181
f 180 181 169
f 181 193 194
f 181 194 182
f 182 194 195
f 182 195 183
f 183 195 196
f 183 196 184
f 184 196 197
f 184 197 185
f 185 197 198
f 185 198 186
f 186 198 199
f 186 199 187
f 187 199 200
f 187 200 188
f 188 200 201
f 188 201 189
f 189 201 202
f 189 202 190
f 190 202 203
f 190 203 191
f 191 203 204
f 191 204 192
f 192 204 193
f 192 193 181
f 193 205 206
f 193 206 194
f 194 206 207
f 194 207 195
f 195 207 208
f 195 208 196
f 196 208 209
f 196 209 197
f 197 209 210
f 197 210 198
f 198 210 211
f 198 211 199
f 199 211 212
f 199 212 200
f 200 212 213
f 200 213 201
f 201 213 214
f 201 214 202
f 202 214 215
f 202 215 203
f 203 215 216
f 203 216 204
f 204 216 205
f 204 205 193
f 205 217 218
f 205 218 206
f 206 218 219
f 206 219 207
f 207 219 220
f 207 220 208
f 208 220 221
f 208 221 209
f 209 221 222
f 209 222 210
f 210 222 223
f 210 223 211
f 211 223 224
f 211 224 212
f 212 224 225
f 212 225 213
f 213 225 226
f 213 226 214
f 214 226 227
f 214 227 215
f 215 227 228
f 215 228 216
f 216 228 217
f 216 217 205
f 217 229 230
f 217 230 218
f 218 230 231
f 218 231 219
f 219 231 232
f 219 232 220
f 220 232 233
f 220 233 221
f 221 233 234
f 221 234 222
f 222 234 235
f 222 235 223
f 223 235 236
f 223 236 224
f 224 236 237
f 224 237 225
f 225 237 238
f 225 238 226
f 226 238 239
f 226 239 227
f 227 239 240
f 227 240 228
f 228 240 229
f 228 229 217
f 229 241 242
f 229 242 230
f 230 242 243
f 230 243 231
f 231 243 244
f 231 244 232
f 232 244 245
f 232 245 233
f 233 245 246
f 233 246 234
f 234 246 247
f 234 247 235
f 235 247 248
f 235 248 236
f 236 248 249
f 236 249 237
f 237 249 250
f 237 250 238
f 238 250 251
f 238 251 239
f 239 251 252
f 239 252 240
f 240 252 241
f 240 241 229
f 241 253 254
f 241 254 242
f 242 254 255
f 242 255 243
f 243 255 256
f 243 256 244
f 244 256 257
f 244 257 245
f 245 257 258
f 245 258 246
f 246 258 259
f 246 259 247
f 247 259 260
f 247 260 248
f 248 260 261
f 248 261 249
f 249 261 262
f 249 262 250
f 250 262 263
f 250 263 251
f 251 263 264
f 251 264 252
f 252 264 253
f 252 253 241
f 253 265 266
f 253 266 254
f 254 266 267
f 254 267 255
f 255 267 268
f 255 268 256
f 256 268 269
f 256 269 257
f 257 269 270
f 257 270 258
f 258 270 271
f 258 271 259
f 259 271 272
f 259 272 260
f 260 272 273
f 260 273 261
f 261 273 274
f 261 274 262
f 262 274 275
f 262 275 263
f 263 275 276
f 263 276 264
f 264 276 265
f 264 265 253
f 265 277 278
f 265 278 266
f 266 278 279
f 266 279 267
f 267 279 280
f 267 280 268
f 268 280 281
f 268 281 269
f 269 281 282
f 269 282 270
f 270 282 283
f 270 283 271
f 271 283 284
f 271 284 272
f 272 284 285
f 272 285 273
f 273 285 286
f 273 286 274
f 274 286 287
f 274 287 275
f 275 287 288
f 275 288 276
f 276 288 277
f 276 277 265
f 277 289 290
f 277 290 278
f 278 290 291
f 278 291 279
f 279 291 292
f 279 292 280
f 280 292 293
f 280 293 281
f 281 293 294
f 281 294 282
f 282 294 295
f 282 295 283
f 283 295 296
f 283 296 284
f 284 296 297
f 284 297 285
f 285 297 298
f 285 298 286
f 286 298 299
f 286 299 287
f 287 299 300
f 287 300 288
f 288 300 289
f 288 289 277
f 289 301 302
f 289 302 290
f 290 302 303
f 290 303 291
f 291 303 304
f 291 304 292
f 292 304 305
f 292 305 293
f 293 305 306
f 293 306 294
f 294 306 307
f 294 307 295
f 295 307 308
f 295 308 296
f 296 308 309
f 296 309 297
f 297 309 310
f 297 310 298
f 298 310 311
f 298 311 299
f 299 311 312
f 299 312 300
f 300 312 301
f 300 301 289
f 301 313 314
f 301 314 302
f 302 314 315
f 302 315 303
f 303 315 316
f 303 316 304
f 304 316 317
f 304 317 305
f 305 317 318
f 305 318 306
f 306 318 319
f 306 319 307
f 307 319 320
f 307 320 308
f 308 320 321
f 308 321 309
f 309 321 322
f 309 322 310
f 310 322 323
f 310 323 311
f 311 323 324
f 311 324 312
f 312 324 313
f 312 313 301
f 313 325 326
f 313 326 314
f 314 326 327
f 314 327 315
f 315 327 328
f 315 328 316
f 316 328 329
f 316 329 317
f 317 329 330
f 317 330 318
f 318 330 331
f 318 331 319
f 319 331 332
f 319 332 320
f 320 332 333
f 320 333 321
f 321 333 334
f 321 334 322
f 322 334 335
f 322 335 323
f 323 335 336
f 323 336 324
f 324 336 325
f 324 325 313
f 325 337 338
f 325 338 326
f 326 338 339
f 326 339 327
f 327 339 340
f 327 340 328
f 328 340 341
f 328 341 329
f 329 341 342
f 329 342 330
f 330 342 343
f 330 343 331
f 331 343 344
f 331 344 332
f 332 344 345
f 332 345 333
f 333 345 346
f 333 346 334
f 334 346 347
f 334 347 335
f 335 347 348
f 335 348 336
f 336 348 337
f 336 337 325
f 337 349 350
f 337 350 338
f 338 350 351
f 338 351 339
f 339 351 352
f 339 352 340
f 340 352 353
f 340 353 341
f 341 353 354
f 341 354 342
f 342 354 355
f 342 355 343
f 343 355 356
f 343 356 344
f 344 356 357
f 344 357 345
f 345 357 358
f 345 358 346
f 346 358 359
f 346 359 347
f 347 359 360
f 347 360 348
f 348 360 349
f 348 349 337
f 349 361 362
f 349 362 350
f 350 362 363
f 350 363 351
f 351 363 364
f 351 364 352
f 352 364 365
f 352 365 353
f 353 365 366
f 353 366 354
f 354 366 367
f 354 367 355
f 355 367 368
f 355 368 356
f 356 368 369
f 356 369 357
f 357 369 370
f 357 370 358
f 358 370 371
f 358 371 359
f 359 371 372
f 359 372 360
f 360 372 361
f 360 361 349
f 361 373 374
f 361 374 362
f 362 374 375
f 362 375 363
f 363 375 376
f 363 376 364
f 364 376 377
f 364 377 365
f 365 377 378
f 365 378 366
f 366 378 379
f 366 379 367
f 367 379 380
f 367 380 368
f 368 380 381
f 368 381 369
f 369 381 382
f 369 382 370
f 370 382 383
f 370 383 371
f 371 383 384
f 371 384 372
f 372 384 373
f 372 373 361
f 373 385 386
f 373 386 374
f 374 386 387
f 374 387 375
f 375 387 388
f 375 388 376
f 376 388 389
f 376 389 377
f 377 389 390
f 377 390 378
f 378 390 391
f 378 391 379
f 379 391 392
f 379 392 380
f 380 392 393
f 380 393 381
f 381 393 394
f 381 394 382
f 382 394 395
f 382 395 383
f 383 395 396
f 383 396 384
f 384 396 385
f 384 385 373
f 385 397 398
f 385 398 386
f 386 398 399
f 386 399 387
f 387 399 400
f 387 400 388
f 388 400 401
f 388 401 389
f 389 401 402
f 389 402 390
f 390 402 403
f 390 403 391
f 391 403 404
f 391 404 392
f 392 404 405
f 392 405 393
f 393 405 406
f 393 406 394
f 394 406 407
f 394 407 395
f 395 407 408
f 395 408 396
f 396 408 397
f 396 397 385
f 397 409 410
f 397 410 398
f 398 410 411
f 398 411 399
f 399 411 412
f 399 412 400
f 400 412 413
f 400 413 401
f 401 413 414
f 401 414 402
f 402 414 415
f 402 415 403
f 403 415 416
f 403 416 404
f 404 416 417
f 404 417 405
f 405 417 418
f 405 418 406
f 406 418 419
f 406 419 407
f 407 419 420
f 407 420 408
f 408 420 409
f 408 409 397
f 409 421 422
f 409 422 410
f 410 422 423
f 410 423 411
f 411 423 424
f 411 424 412
f 412 424 425
f 412 425 413
f 413 425 426
f 413 426 414
f 414 426 427
f 414 427 415
f 415 427 428
f 415 428 416
f 416 428 429
f 416 429 417
f 417 429 430
f 417 430 418
f 418 430 431
f 418 431 419
f 419 431 432
f 419 432 420
f 420 432 421
f 420 421 409
f 421 433 434
f 421 434 422
f 422 434 435
f 422 435 423
f 423 435 436
f 423 436 424
f 424 436 437
f 424 437 425
f 425 437 438
f 425 438 426
f 426 438 439
f 426 439 427
f 427 439 440
f 427 440 428
f 428 440 441
f 428 441 429
f 429 441 442
f 429 442 430
f 430 442 443
f 430 443 431
f 431 443 444
f 431 444 432
f 432 444 433
f 432 433 421
f 433 445 446
f 433 446 434
f 434 446 447
f 434 447 435
f 435 447 448
f 435 448 436
f 436 448 449
f 436 449 437
f 437 449 450
f 437 450 438
f 438 450 451
f 438 451 439
f 439 451 452
f 439 452 440
f 440 452 453
f 440 453 441
f 441 453 454
f 441 454 442
f 442 454 455
f 442 455 443
f 443 455 456
f 443 456 444
f 444 456 445
f 444 445 433
f 445 457 458
f 445 458 446
f 446 458 459
f 446 459 447
f 447 459 460
f 447 460 448
f 448 460 461
f 448 461 449
f 449 461 462
f 449 462 450
f 450 462 463
f 450 463 451
f 451 463 464
f 451 464 452
f 452 464 465
f 452 465 453
f 453 465 466
f 453 466 454
f 454 466 467
f 454 467 455
f 455 467 468
f 455 468 456
f 456 468 457
f 456 457 445
f 457 469 470
f 457 470 458
f 458 470 471
f 458 471 459
f 459 471 472
f 459 472 460
f 460 472 473
f 460 473 461
f 461 473 474
f 461 474 462
f 462 474 475
f 462 475 463
f 463 475 476
f 463 476 464
f 464 476 477
f 464 477 465
f 465 477 478
f 465 478 466
f 466 478 479
f 466 479 467
f 467 479 480
f 467 480 468
f 468 480 469
f 468 469 457
f 469 481 482
f 469 482 470
f 470 482 483
f 470 483 471
f 471 483 484
f 471 484 472
f 472 484 485
f 472 485 473
f 473 485 486
f 473 486 474
f 474 486 487
f 474 487 475
f 475 487 488
f 475 488 476
f 476 488 489
f 476 489 477
f 477 489 490
f 477 490 478
f 478 490 491
f 478 491 479
f 479 491 492
f 479 492 480
f 480 492 481
f 480 481 469
f 481 493 494
f 481 494 482
f 482 494 495
f 482 495 483
f 483 495 496
f 483 496 484
f 484 496 497
f 484 497 485
f 485 497 498
f 485 498 486
f 486 498 499
f 486 499 487
f 487 499 500
f 487 500 488
f 488 500 501
f 488 501 489
f 489 501 502
f 489 502 490
f 490 502 503
f 490 503 491
f 491 503 504
f 491 504 492
f 492 504 493
f 492 493 481
f 493 505 506
f 493 506 494
f 494 506 507
f 494 507 495
f 495 507 508
f 495 508 496
f 496 508 509
f 496 509 497
f 497 509 510
f 497 510 498
f 498 510 511
f 498 511 499
f 499 511 512
f 499 512 500
f 500 512 513
f 500 513 501
f 501 513 514
f 501 514 502
f 502 514 515
f 502 515 503
f 503 515 516
f 503 516 504
f 504 516 505
f 504 505 493
f 505 517 518
f 505 518 506
f 506 518 519
f 506 519 507
f 507 519 520
f 507 520 508
f 508 520 521
f 508 521 509
f 509 521 522
f 509 522 510
f 510 522 523
f 510 523 511
f 511 523 524
f 511 524 512
f 512 524 525
f 512 525 513
f 513 525 526
f 513 526 514
f 514 526 527
f 514 527 515
f 515 527 528
f 515 528 516
f 516 528 517
f 516 517 505
f 517 529 530
f 517 530 518
f 518 530 531
f 518 531 519
f 519 531 532
f 519 532 520
f 520 532 533
f 520 533 521
f 521 533 534
f 521 534 522
f 522 534 535
f 522 535 523
f 523 535 536
f 523 536 524
f 524 536 537
f 524 537 525
f 525 537 538
f 525 538 526
f 526 538 539
f 526 539 527
f 527 539 540
f 527 540 528
f 528 540 529
f 528 529 517
f 529 541 542
f 529 542 530
f 530 542 543
f 530 543 531
f 531 543 544
f 531 544 532
f 532 544 545
f 532 545 533
f 533 545 546
f 533 546 534
f 534 546 547
f 534 547 535
f 535 547 548
f 535 548 536
f 536 548 549
f 536 549 537
f 537 549 550
f 537 550 538
f 538 550 551
f 538 551 539
f 539 551 552
f 539 552 540
f 540 552 541
f 540 541 529
f 541 553 554
f 541 554 542
f 542 554 555
f 542 555 543
f 543 555 556
f 543 556 544
f 544 556 557
f 544 557 545
f 545 557 558
f 545 558 546
f 546 558 559
f 546 559 547
f 547 559 560
f 547 560 548
f 548 560 561
f 548 561 549
f 549 561 562
f 549 562 550
f 550 562 563
f 550 563 551
f 551 563 564
f 551 564 552
f 552 564 553
f 552 553 541
f 553 565 566
f 553 566 554
f 554 566 567
f 554 567 555
f 555 567 568
f 555 568 556
f 556 568 569
f 556 569 557
f 557 569 570
f 557 570 558
f 558 570 571
f 558 571 559
f 559 571 572
f 559 572 560
f 560 572 573
f 560 573 561
f 561 573 574
f 561 574 562
f 562 574 575
f 562 575 563
f 563 575 576
f 563 576 564
f 564 576 565
f 564 565 553
f 565 577 578
f 565 578 566
f 566 578 579
f 566 579 567
f 567 579 580
f 567 580 568
f 568 580 581
f 568 581 569
f 569 581 582
f 569 582 570
f 570 582 583
f 570 583 571
f 571 583 584
f 571 584 572
f 572 584 585
f 572 585 573
f 573 585 586
f 573 586 574
f 574 586 587
f 574 587 575
f 575 587 588
f 575 588 576
f 576 588 577
f 576 577 565
f 577 589 590
f 577 590 578
f 578 590 591
f 578 591 579
f 579 591 592
f 579 592 580
f 580 592 593
f 580 593 581
f 581 593 594
f 581 594 582
f 582 594 595
f 582 595 583
f 583 595 596
f 583 596 584
f 584 596 597
f 584 597 585
f 585 597 598
f 585 598 586
f 586 598 599
f 586 599 587
f 587 599 600
f 587 600 588
f 588 600 589
f 588 589 577
f 589 601 602
f 589 602 590
f 590 602 603
f 590 603 591
f 591 603 604
f 591 604 592
f 592 604 605
f 592 605 593
f 593 605 606
f 593 606 594
f 594 606 607
f 594 607 595
f 595 607 608
f 595 608 596
f 596 608 609
f 596 609 597
f 597 609 610
f 597 610 598
f 598 610 611
f 598 611 599
f 599 611 612
f 599 612 600
f 600 612 601
f 600 601 589
f 601 613 614
f 601 614 602
f 602 614 615
f 602 615 603
f 603 615 616
f 603 616 604
f 604 616 617
f 604 617 605
f 605 617 618
f 605 618 606
f 606 618 619
f 606 619 607
f 607 619 620
f 607 620 608
f 608 620 621
f 608 621 609
f 609 621 622
f 609 622 610
f 610 622 623
f 610 623 611
f 611 623 624
f 611 624 612
f 612 624 613
f 612 613 601
f 613 625 626
f 613 626 614
f 614 626 627
f 614 627 615
f 615 627 628
f 615 628 616
f 616 628 629
f 616 629 617
f 617 629 630
f 617 630 618
f 618 630 631
f 618 631 619
f 619 631 632
f 619 632 620
f 620 632 633
f 620 633 621
f 621 633 634
f 621 634 622
f 622 634 635
f 622 635 623
f 623 635 636
f 623 636 624
f 624 636 625
f 624 625 613
f 625 637 638
f 625 638 626
f 626 638 639
f 626 639 627
f 627 639 640
f 627 640 628
f 628 640 641
f 628 641 629
f 629 641 642
f 629 642 630
f 630 642 643
f 630 643 631
f 631 643 644
f 631 644 632
f 632 644 645
f 632 645 633
f 633 645 646
f 633 646 634
f 634 646 647
f 634 647 635
f 635 647 648
f 635 648 636
f 636 648 637
f 636 637 625
f 637 649 650
f 637 650 638
f 638 650 651
f 638 651 639
f 639 651 652
f 639 652 640
f 640 652 653
f 640 653 641
f 641 653 654
f 641 654 642
f 642 654 655
f 642 655 643
f 643 655 656
f 643 656 644
f 644 656 657
f 644 657 645
f 645 657 658
f 645 658 646
f 646 658 659
f 646 659 647
f 647 659 660
f 647 660 648
f 648 660 649
f 648 649 637
f 649 661 662
f 649 662 650
f 650 662 663
f 650 663 651
f 651 663 664
f 651 664 652
f 652 664 665
f 652 665 653
f 653 665 666
f 653 666 654
f 654 666 667
f 654 667 655
f 655 667 668
f 655 668 656
f 656 668 669
f 656 669 657
f 657 669 670
f 657 670 658
f 658 670 671
f 658 671 659
f 659 671 672
f 659 672 660
f 660 672 661
f 660 661 649
f 661 673 674
f 661 674 662
f 662 674 675
f 662 675 663
f 663 675 676
f 663 676 664
f 664 676 677
f 664 677 665
f 665 677 678
f 665 678 666
f 666 678 679
f 666 679 667
f 667 679 680
f 667 680 668
f 668 680 681
f 668 681 669
f 669 681 682
f 669 682 670
f 670 682 683
f 670 683 671
f 671 683 684
f 671 684 672
f 672 684 673
f 672 673 661
f 673 685 686
f 673 686 674
f 674 686 687
f 674 687 675
f 675 687 688
f 675 688 676
f 676 688 689
f 676 689 677
f 677 689 690
f 677 690 678
f 678 690 691
f 678 691 679
f 679 691 692
f 679 692 680
f 680 692 693
f 680 693 681
f 681 693 694
f 681 694 682
f 682 694 695
f 682 695 683
f 683 695 696
f 683 696 684
f 684 696 685
f 684 685 673
f 685 697 698
f 685 698 686
f 686 698 699
f 686 699 687
f 687 699 700
f 687 700 688
f 688 700 701
f 688 701 689
f 689 701 702
f 689 702 690
f 690 702 703
f 690 703 691
f 691 703 704
f 691 704 692
f 692 704 705
f 692 705 693
f 693 705 706
f 693 706 694
f 694 706 707
f 694 707 695
f 695 707 708
f 695 708 696
f 696 708 697
f 696 697 685
f 697 709 710
f 697 710 698
f 698 710 711
f 698 711 699
f 699 711 712
f 699 712 700
f 700 712 713
f 700 713 701
f 701 713 714
f 701 714 702
f 702 714 715
f 702 715 703
f 703 715 716
f 703 716 704
f 704 716 717
f 704 717 705
f 705 717 718
f 705 718 706
f 706 718 719
f 706 719 707
f 707 719 720
f 707 720 708
f 708 720 709
f 708 709 697
f 709 721 722
f 709 722 710
f 710 722 723
f 710 723 711
f 711 723 724
f 711 724 712
f 712 724 725
f 712 725 713
f 713 725 726
f 713 726 714
f 714 726 727
f 714 727 715
f 715 727 728
f 715 728 716
f 716 728 729
f 716 729 717
f 717 729 730
f 717 730 718
f 718 730 731
f 718 731 719
f 719 731 732
f 719 732 720
f 720 732 721
f 720 721 709
f 721 733 734
f 721 734 722
f 722 734 735
f 722 735 723
f 723 735 736
f 723 736 724
f 724 736 737
f 724 737 725
f 725 737 738
f 725 738 726
f 726 738 739
f 726 739 727
f 727 739 740
f 727 740 728
f 728 740 741
f 728 741 729
f 729 741 742
f 729 742 730
f 730 742 743
f 730 743 731
f 731 743 744
f 731 744 732
f 732 744 733
f 732 733 721
f 733 745 746
f 733 746 734
f 734 746 747
f 734 747 735
f 735 747 748
f 735 748 736
f 736 748 749
f 736 749 737
f 737 749 750
f 737 750 738
f 738 750 751
f 738 751 739
f 739 751 752
f 739 752 740
f 740 752 753
f 740 753 741
f 741 753 754
f 741 754 742
f 742 754 755
f 742 755 743
f 743 755 756
f 743 756 744
f 744 756 745
f 744 745 733
f 745 757 758
f 745 758 746
f 746 758 759
f 746 759 747
f 747 759 760
f 747 760 748
f 748 760 761
f 748 761 749
f 749 761 762
f 749 762 750
f 750 762 763
f 750 763 751
f 751 763 764
f 751 764 752
f 752 764 765
f 752 765 753
f 753 765 766
f 753 766 754
f 754 766 767
f 754 767 755
f 755 767 768
f 755 768 756
f 756 768 757
f 756 757 745
f 757 769 770
f 757 770 758
f 758 770 771
f 758 771 759
f 759 771 772
f 759 772 760
f 760 772 773
f 760 773 761
f 761 773 774
f 761 774 762
f 762 774 775
f 762 775 763
f 763 775 776
f 763 776 764
f 764 776 777
f 764 777 765
f 765 777 778
f 765 778 766
f 766 778 779
f 766 779 767
f 767 779 780
f 767 780 768
f 768 780 769
f 768 769 757
f 769 781 782
f 769 782 770
f 770 782 783
f 770 783 771
f 771 783 784
f 771 784 772
f 772 784 785
f 772 785 773
f 773 785 786
f 773 786 774
f 774 786 787
f 774 787 775
f 775 787 788
f 775 788 776
f 776 788 789
f 776 789 777
f 777 789 790
f 777 790 778
f 778 790 791
f 778 791 779
f 779 791 792
f 779 792 780
f 780 792 781
f 780 781 769
f 781 793 794
f 781 794 782
f 782 794 795
f 782 795 783
f 783 795 796
f 783 796 784
f 784 796 797
f 784 797 785
f 785 797 798
f 785 798 786
f 786 798 799
f 786 799 787
f 787 799 800
f 787 800 788
f 788 800 801
f 788 801 789
f 789 801 802
f 789 802 790
f 790 802 803
f 790 803 791
f 791 803 804
f 791 804 792
f 792 804 793
f 792 793 781
f 793 805 806
f 793 806 794
f 794 806 807
f 794 807 795
f 795 807 808
f 795 808 796
f 796 808 809
f 796 809 797
f 797 809 810
f 797 810 798
f 798 810 811
f 798 811 799
f 799 811 812
f 799 812 800
f 800 812 813
f 800 813 801
f 801 813 814
f 801 814 802
f 802 814 815
f 802 815 803
f 803 815 816
f 803 816 804
f 804 816 805
f 804 805 793
f 805 817 818
f 805 818 806
f 806 818 819
f 806 819 807
f 807 819 820
f 807 820 808
f 808 820 821
f 808 821 809
f 809 821 822
f 809 822 810
f 810 822 823
f 810 823 811
f 811 823 824
f 811 824 812
f 812 824 825
f 812 825 813
f 813 825 826
f 813 826 814
f 814 826 827
f 814 827 815
f 815 827 828
f 815 828 816
f 816 828 817
f 816 817 805
f 817 829 830
f 817 830 818
f 818 830 831
f 818 831 819
f 819 831 832
f 819 832 820
f 820 832 833
f 820 833 821
f 821 833 834
f 821 834 822
f 822 834 835
f 822 835 823
f 823 835 836
f 823 836 824
f 824 836 837
f 824 837 825
f 825 837 838
f 825 838 826
f 826 838 839
f 826 839 827
f 827 839 840
f 827 840 828
f 828 840 829
f 828 829 817
f 829 841 842
f 829 842 830
f 830 842 843
f 830 843 831
f 831 843 844
f 831 844 832
f 832 844 845
f 832 845 833
f 833 845 846
f 833 846 834
f 834 846 847
f 834 847 835
f 835 847 848
f 835 848 836
f 836 848 849
f 836 849 837
f 837 849 850
f 837 850 838
f 838 850 851
f 838 851 839
f 839 851 852
f 839 852 840
f 840 852 841
f 840 841 829
f 841 853 854
f 841 854 842
f 842 854 855
f 842 855 843
f 843 855 856
f 843 856 844
f 844 856 857
f 844 857 845
f 845 857 858
f 845 858 846
f 846 858 859
f 846 859 847
f 847 859 860
f 847 860 848
f 848 860 861
f 848 861 849
f 849 861 862
f 849 862 850
f 850 862 863
f 850 863 851
f 851 863 864
f 851 864 852
f 852 864 853
f 852 853 841
f 853 865 866
f 853 866 854
f 854 866 867
f 854 867 855
f 855 867 868
f 855 868 856
f 856 868 869
f 856 869 857
f 857 869 870
f 857 870 858
f 858 870 871
f 858 871 859
f 859 871 872
f 859 872 860
f 860 872 873
f 860 873 861
f 861 873 874
f 861 874 862
f 862 874 875
f 862 875 863
f 863 875 876
f 863 876 864
f 864 876 865
f 864 865 853
f 865 877 878
f 865 878 866
f 866 878 879
f 866 879 867
f 867 879 880
f 867 880 868
f 868 880 881
f 868 881 869
f 869 881 882
f 869 882 870
f 870 882 883
f 870 883 871
f 871 883 884
f 871 884 872
f 872 884 885
f 872 885 873
f 873 885 886
f 873 886 874
f 874 886 887
f 874 887 875
f 875 887 888
f 875 888 876
f 876 888 877
f 876 877 865
f 877 889 890
f 877 890 878
f 878 890 891
f 878 891 879
f 879 891 892
f 879 892 880
f 880 892 893
f 880 893 881
f 881 893 894
f 881 894 882
f 882 894 895
f 882 895 883
f 883 895 896
f 883 896 884
f 884 896 897
f 884 897 885
f 885 897 898
f 885 898 886
f 886 898 899
f 886 899 887
f 887 899 900
f 887 900 888
f 888 900 889
f 888 889 877
f 889 901 902
f 889 902 890
f 890 902 903
f 890 903 891
f 891 903 904
f 891 904 892
f 892 904 905
f 892 905 893
f 893 905 906
f 893 906 894
f 894 906 907
f 894 907 895
f 895 907 908
f 895 908 896
f 896 908 909
f 896 909 897
f 897 909 910
f 897 910 898
f 898 910 911
f 898 911 899
f 899 911 912
f 899 912 900
f 900 912 901
f 900 901 889
f 901 913 914
f 901 914 902
f 902 914 915
f 902 915 903
f 903 915 916
f 903 916 904
f 904 916 917
f 904 917 905
f 905 917 918
f 905 918 906
f 906 918 919
f 906 919 907
f 907 919 920
f 907 920 908
f 908 920 921
f 908 921 909
f 909 921 922
f 909 922 910
f 910 922 923
f 910 923 911
f 911 923 924
f 911 924 912
f 912 924 913
f 912 913 901
f 913 925 926
f 913 926 914
f 914 926 927
f 914 927 915
f 915 927 928
f 915 928 916
f 916 928 929
f 916 929 917
f 917 929 930
f 917 930 918
f 918 930 931
f 918 931 919
f 919 931 932
f 919 932 920
f 920 932 933
f 920 933 921
f 921 933 934
f 921 934 922
f 922 934 935
f 922 935 923
f 923 935 936
f 923 936 924
f 924 936 925
f 924 925 913
f 925 937 938
f 925 938 926
f 926 938 939
f 926 939 927
f 927 939 940
f 927 940 928
f 928 940 941
f 928 941 929
f 929 941 942
f 929 942 930
f 930 942 943
f 930 943 931
f 931 943 944
f 931 944 932
f 932 944 945
f 932 945 933
f 933 945 946
f 933 946 934
f 934 946 947
f 934 947 935
f 935 947 948
f 935 948 936
f 936 948 937
f 936 937 925
f 937 949 950
f 937 950 938
f 938 950 951
f 938 951 939
f 939 951 952
f 939 952 940
f 940 952 953
f 940 953 941
f 941 953 954
f 941 954 942
f 942 954 955
f 942 955 943
f 943 955 956
f 943 956 944
f 944 956 957
f 944 957 945
f 945 957 958
f 945 958 946
f 946 958 959
f 946 959 947
f 947 959 960
f 947 960 948
f 948 960 949
f 948 949 937
f 949 961 962
f 949 962 950
f 950 962 963
f 950 963 951
f 951 963 964
f 951 964 952
f 952 964 965
f 952 965 953
f 953 965 966
f 953 966 954
f 954 966 967
f 954 967 955
f 955 967 968
f 955 968 956
f 956 968 969
f 956 969 957
f 957 969 970
f 957 970 958
f 958 970 971
f 958 971 959
f 959 971 972
f 959 972 960
f 960 972 961
f 960 961 949
f 961 973 974
f 961 974 962
f 962 974 975
f 962 975 963
f 963 975 976
f 963 976 964
f 964 976 977
f 964 977 965
f 965 977 978
f 965 978 966
f 966 978 979
f 966 979 967
f 967 979 980
f 967 980 968
f 968 980 981
f 968 981 969
f 969 981 982
f 969 982 970
f 970 982 983
f 970 983 971
f 971 983 984
f 971 984 972
f 972 984 973
f 972 973 961
f 973 985 986
f 973 986 974
f 974 986 987
f 974 987 975
f 975 987 988
f 975 988 976
f 976 988 989
f 976 989 977
f 977 989 990
f 977 990 978
f 978 990 991
f 978 991 979
f 979 991 992
f 979 992 980
f 980 992 993
f 980 993 981
f 981 993 994
f 981 994 982
f 982 994 995
f 982 995 983
f 983 995 996
f 983 996 984
f 984 996 985
f 984 985 973
f 985 997 998
f 985 998 986
f 986 998 999
f 986 999 987
f 987 999 1000
f 987 1000 988
f 988 1000 1001
f 988 1001 989
f 989 1001 1002
f 989 1002 990
f 990 1002 1003
f 990 1003 991
f 991 1003 1004
f 991 1004 992
f 992 1004 1005
f 992 1005 993
f 993 1005 1006
f 993 1006 994
f 994 1006 1007
f 994 1007 995
f 995 1007 1008
f 995 1008 996
f 996 1008 997
f 996 997 985
f 997 1009 1010
f 997 1010 998
f 998 1010 1011
f 998 1011 999
f 999 1011 1012
f 999 1012 1000
f 1000 1012 1013
f 1000 1013 1001
f 1001 1013 1014
f 1001 1014 1002
f 1002 1014 1015
f 1002 1015 1003
f 1003 1015 1016
f 1003 1016 1004
f 1004 1016 1017
f 1004 1017 1005
f 1005 1017 1018
f 1005 1018 1006
f 1006 1018 1019
f 1006 1019 1007
f 1007 1019 1020
f 1007 1020 1008
f 1008 1020 1009
f 1008 1009 997
f 1009 1021 1022
f 1009 1022 1010
f 1010 1022 1023
f 1010 1023 1011
f 1011 1023 1024
f 1011 1024 1012
f 1012 1024 1025
f 1012 1025 1013
f 1013 1025 1026
f 1013 1026 1014
f 1014 1026 1027
f 1014 1027 1015
f 1015 1027 1028
f 1015 1028 1016
f 1016 1028 1029
f 1016 1029 1017
f 1017 1029 1030
f 1017 1030 1018
f 1018 1030 1031
f 1018 1031 1019
f 1019 1031 1032
f 1019 1032 1020
f 1020 1032 1021
f 1020 1021 1009
f 1021 1033 1034
f 1021 1034 1022
f 1022 1034 1035
f 1022 1035 1023
f 1023 1035 1036
f 1023 1036 1024
f 1024 1036 1037
f 1024 1037 1025
f 1025 1037 1038
f 1025 1038 1026
f 1026 1038 1039
f 1026 1039 1027
f 1027 1039 1040
f 1027 1040 1028
f 1028 1040 1041
f 1028 1041 1029
f 1029 1041 1042
f 1029 1042 1030
f 1030 1042 1043
f 1030 1043 1031
f 1031 1043 1044
f 1031 1044 1032
f 1032 1044 1033
f 1032 1033 1021
f 1033 1045 1046
f 1033 1046 1034
f 1034 1046 1047
f 1034 1047 1035
f 1035 1047 1048
f 1035 1048 1036
f 1036 1048 1049
f 1036 1049 1037
f 1037 1049 1050
f 1037 1050 1038
f 1038 1050 1051
f 1038 1051 1039
f 1039 1051 1052
f 1039 1052 1040
f 1040 1052 1053
f 1040 1053 1041
f 1041 1053 1054
f 1041 1054 1042
f 1042 1054 1055
f 1042 1055 1043
f 1043 1055 1056
f 1043 1056 1044
f 1044 1056 1045
f 1044 1045 1033
f 1045 1057 1058
f 1045 1058 1046
f 1046 1058 1059
f 1046 1059 1047
f 1047 1059 1060
f 1047 1060 1048
f 1048 1060 1061
f 1048 1061 1049
f 1049 1061 1062
f 1049 1062 1050
f 1050 1062 1063
f 1050 1063 1051
f 1051 1063 1064
f 1051 1064 1052
f 1052 1064 1065
f 1052 1065 1053
f 1053 1065 1066
f 1053 1066 1054
f 1054 1066 1067
f 1054 1067 1055
f 1055 1067 1068
f 1055 1068 1056
f 1056 1068 1057
f 1056 1057 1045
f 1057 1069 1070
f 1057 1070 1058
f 1058 1070 1071
f 1058 1071 1059
f 1059 1071 1072
f 1059 1072 1060
f 1060 1072 1073
f 1060 1073 1061
f 1061 1073 1074
f 1061 1074 1062
f 1062 1074 1075
f 1062 1075 1063
f 1063 1075 1076
f 1063 1076 1064
f 1064 1076 1077
f 1064 1077 1065
f 1065 1077 1078
f 1065 1078 1066
f 1066 1078 1079
f 1066 1079 1067
f 1067 1079 1080
f 1067 1080 1068
f 1068 1080 1069
f 1068 1069 1057
f 1069 1081 1082
f 1069 1082 1070
f 1070 1082 1083
f 1070 1083 1071
f 1071 1083 1084
f 1071 1084 1072
f 1072 1084 1085
f 1072 1085 1073
f 1073 1085 1086
f 1073 1086 1074
f 1074 1086 1087
f 1074 1087 1075
f 1075 1087 1088
f 1075 1088 1076
f 1076 1088 1089
f 1076 1089 1077
f 1077 1089 1090
f 1077 1090 1078
f 1078 1090 1091
f 1078 1091 1079
f 1079 1091 1092
f 1079 1092 1080
f 1080 1092 1081
f 1080 1081 1069
f 1081 1093 1094
f 1081 1094 1082
f 1082 1094 1095
f 1082 1095 1083
f 1083 1095 1096
f 1083 1096 1084
f 1084 1096 1097
f 1084 1097 1085
f 1085 1097 1098
f 1085 1098 1086
f 1086 1098 1099
f 1086 1099 1087
f 1087 1099 1100
f 1087 1100 1088
f 1088 1100 1101
f 1088 1101 1089
f 1089 1101 1102
f 1089 1102 1090
f 1090 1102 1103
f 1090 1103 1091
f 1091 1103 1104
f 1091 1104 1092
f 1092 1104 1093
f 1092 1093 1081
f 1093 1105 1106
f 1093 1106 1094
f 1094 1106 1107
f 1094 1107 1095
f 1095 1107 1108
f 1095 1108 1096
f 1096 1108 1109
f 1096 1109 1097
f 1097 1109 1110
f 1097 1110 1098
f 1098 1110 1111
f 1098 1111 1099
f 1099 1111 1112
f 1099 1112 1100
f 1100 1112 1113
f 1100 1113 1101
f 1101 1113 1114
f 1101 1114 1102
f 1102 1114 1115
f 1102 1115 1103
f 1103 1115 1116
f 1103 1116 1104
f 1104 1116 1105
f 1104 1105 1093
f 1105 1117 1118
f 1105 1118 1106
f 1106 1118 1119
f 1106 1119 1107
f 1107 1119 1120
f 1107 1120 1108
f 1108 1120 1121
f 1108 1121 1109
f 1109 1121 1122
f 1109 1122 1110
f 1110 1122 1123
f 1110 1123 1111
f 1111 1123 1124
f 1111 1124 1112
f 1112 1124 1125
f 1112 1125 1113
f 1113 1125 1126
f 1113 1126 1114
f 1114 1126 1127
f 1114 1127 1115
f 1115 1127 1128
f 1115 1128 1116
f 1116 1128 1117
f 1116 1117 1105
f 1117 1129 1130
f 1117 1130 1118
f 1118 1130 1131
f 1118 1131 1119
f 1119 1131 1132
f 1119 1132 1120
f 1120 1132 1133
f 1120 1133 1121
f 1121 1133 1134
f 1121 1134 1122
f 1122 1134 1135
f 1122 1135 1123
f 1123 1135 1136
f 1123 1136 1124
f 1124 1136 1137
f 1124 1137 1125
f 1125 1137 1138
f 1125 1138 1126
f 1126 1138 1139
f 1126 1139 1127
f 1127 1139 1140
f 1127 1140 1128
f 1128 1140 1129
f 1128 1129 1117
f 1129 1141 1142
f 1129 1142 1130
f 1130 1142 1143
f 1130 1143 1131
f 1131 1143 1144
f 1131 1144 1132
f 1132 1144 1145
f 1132 1145 1133
f 1133 1145 1146
f 1133 1146 1134
f 1134 1146 1147
f 1134 1147 1135
f 1135 1147 1148
f 1135 1148 1136
f 1136 1148 1149
f 1136 1149 1137
f 1137 1149 1150
f 1137 1150 1138
f 1138 1150 1151
f 1138 1151 1139
f 1139 1151 1152
f 1139 1152 1140
f 1140 1152 1141
f 1140 1141 1129
f 1141 1 2
f 1141 2 1142
f 1142 2 3
f 1142 3 1143
f 1143 3 4
f 1143 4 1144
f 1144 4 5
f 1144 5 1145
f 1145 5 6
f 1145 6 1146
f 1146 6 7
f 1146 7 1147
f 1147 7 8
f 1147 8 1148
f 1148 8 9
f 1148 9 1149
f 1149 9 10
f 1149 10 1150
f 1150 10 11
f 1150 11 1151
f 1151 11 12
f 1151 12 1152
f 1152 12 1
f 1152 1 1141
