# Original procedural geometry for the DOF gallery; generated by make_scene.py.
v 0.000000000 0.000000000 0.000000000
v 0.000000000 0.000000000 0.000000000
v 0.000000000 0.000000000 0.000000000
v 0.000000000 0.000000000 0.000000000
v 0.000000000 0.000000000 0.000000000
v 0.000000000 0.000000000 0.000000000
v 0.000000000 0.000000000 0.000000000
v 0.000000000 0.000000000 0.000000000
v 0.000000000 0.000000000 0.000000000
v 0.000000000 0.000000000 0.000000000
v 0.000000000 0.000000000 0.000000000
v 0.000000000 0.000000000 0.000000000
v 0.000000000 0.000000000 0.000000000
v 0.000000000 0.000000000 0.000000000
v 0.000000000 0.000000000 0.000000000
v 0.000000000 0.000000000 0.000000000
v 0.000000000 0.000000000 0.000000000
v -0.000000000 0.000000000 0.000000000
v -0.000000000 0.000000000 0.000000000
v -0.000000000 0.000000000 0.000000000
v -0.000000000 0.000000000 0.000000000
v -0.000000000 0.000000000 0.000000000
v -0.000000000 0.000000000 0.000000000
v -0.000000000 0.000000000 0.000000000
v -0.000000000 0.000000000 0.000000000
v -0.000000000 0.000000000 0.000000000
v -0.000000000 0.000000000 0.000000000
v -0.000000000 0.000000000 0.000000000
v -0.000000000 0.000000000 0.000000000
v -0.000000000 0.000000000 0.000000000
v -0.000000000 0.000000000 0.000000000
v -0.000000000 0.000000000 0.000000000
v -0.000000000 0.000000000 0.000000000
v -0.000000000 0.000000000 -0.000000000
v -0.000000000 0.000000000 -0.000000000
v -0.000000000 0.000000000 -0.000000000
v -0.000000000 0.000000000 -0.000000000
v -0.000000000 0.000000000 -0.000000000
v -0.000000000 0.000000000 -0.000000000
v -0.000000000 0.000000000 -0.000000000
v -0.000000000 0.000000000 -0.000000000
v -0.000000000 0.000000000 -0.000000000
v -0.000000000 0.000000000 -0.000000000
v -0.000000000 0.000000000 -0.000000000
v -0.000000000 0.000000000 -0.000000000
v -0.000000000 0.000000000 -0.000000000
v -0.000000000 0.000000000 -0.000000000
v -0.000000000 0.000000000 -0.000000000
v -0.000000000 0.000000000 -0.000000000
v 0.000000000 0.000000000 -0.000000000
v 0.000000000 0.000000000 -0.000000000
v 0.000000000 0.000000000 -0.000000000
v 0.000000000 0.000000000 -0.000000000
v 0.000000000 0.000000000 -0.000000000
v 0.000000000 0.000000000 -0.000000000
v 0.000000000 0.000000000 -0.000000000
v 0.000000000 0.000000000 -0.000000000
v 0.000000000 0.000000000 -0.000000000
v 0.000000000 0.000000000 -0.000000000
v 0.000000000 0.000000000 -0.000000000
v 0.000000000 0.000000000 -0.000000000
v 0.000000000 0.000000000 -0.000000000
v 0.000000000 0.000000000 -0.000000000
v 0.000000000 0.000000000 -0.000000000
v 0.950000000 0.000000000 0.000000000
v 0.945425490 0.000000000 0.093116283
v 0.931746016 0.000000000 0.185335806
v 0.909093319 0.000000000 0.275770443
v 0.877685556 0.000000000 0.363549261
v 0.837825201 0.000000000 0.447826900
v 0.789896132 0.000000000 0.527791721
v 0.734359931 0.000000000 0.602673620
v 0.671751442 0.000000000 0.671751442
v 0.602673620 0.000000000 0.734359931
v 0.527791721 0.000000000 0.789896132
v 0.447826900 0.000000000 0.837825201
v 0.363549261 0.000000000 0.877685556
v 0.275770443 0.000000000 0.909093319
v 0.185335806 0.000000000 0.931746016
v 0.093116283 0.000000000 0.945425490
v 0.000000000 0.000000000 0.950000000
v -0.093116283 0.000000000 0.945425490
v -0.185335806 0.000000000 0.931746016
v -0.275770443 0.000000000 0.909093319
v -0.363549261 0.000000000 0.877685556
v -0.447826900 0.000000000 0.837825201
v -0.527791721 0.000000000 0.789896132
v -0.602673620 0.000000000 0.734359931
v -0.671751442 0.000000000 0.671751442
v -0.734359931 0.000000000 0.602673620
v -0.789896132 0.000000000 0.527791721
v -0.837825201 0.000000000 0.447826900
v -0.877685556 0.000000000 0.363549261
v -0.909093319 0.000000000 0.275770443
v -0.931746016 0.000000000 0.185335806
v -0.945425490 0.000000000 0.093116283
v -0.950000000 0.000000000 0.000000000
v -0.945425490 0.000000000 -0.093116283
v -0.931746016 0.000000000 -0.185335806
v -0.909093319 0.000000000 -0.275770443
v -0.877685556 0.000000000 -0.363549261
v -0.837825201 0.000000000 -0.447826900
v -0.789896132 0.000000000 -0.527791721
v -0.734359931 0.000000000 -0.602673620
v -0.671751442 0.000000000 -0.671751442
v -0.602673620 0.000000000 -0.734359931
v -0.527791721 0.000000000 -0.789896132
v -0.447826900 0.000000000 -0.837825201
v -0.363549261 0.000000000 -0.877685556
v -0.275770443 0.000000000 -0.909093319
v -0.185335806 0.000000000 -0.931746016
v -0.093116283 0.000000000 -0.945425490
v -0.000000000 0.000000000 -0.950000000
v 0.093116283 0.000000000 -0.945425490
v 0.185335806 0.000000000 -0.931746016
v 0.275770443 0.000000000 -0.909093319
v 0.363549261 0.000000000 -0.877685556
v 0.447826900 0.000000000 -0.837825201
v 0.527791721 0.000000000 -0.789896132
v 0.602673620 0.000000000 -0.734359931
v 0.671751442 0.000000000 -0.671751442
v 0.734359931 0.000000000 -0.602673620
v 0.789896132 0.000000000 -0.527791721
v 0.837825201 0.000000000 -0.447826900
v 0.877685556 0.000000000 -0.363549261
v 0.909093319 0.000000000 -0.275770443
v 0.931746016 0.000000000 -0.185335806
v 0.945425490 0.000000000 -0.093116283
v 1.000000000 0.040000000 0.000000000
v 0.995184727 0.040000000 0.098017140
v 0.980785280 0.040000000 0.195090322
v 0.956940336 0.040000000 0.290284677
v 0.923879533 0.040000000 0.382683432
v 0.881921264 0.040000000 0.471396737
v 0.831469612 0.040000000 0.555570233
v 0.773010453 0.040000000 0.634393284
v 0.707106781 0.040000000 0.707106781
v 0.634393284 0.040000000 0.773010453
v 0.555570233 0.040000000 0.831469612
v 0.471396737 0.040000000 0.881921264
v 0.382683432 0.040000000 0.923879533
v 0.290284677 0.040000000 0.956940336
v 0.195090322 0.040000000 0.980785280
v 0.098017140 0.040000000 0.995184727
v 0.000000000 0.040000000 1.000000000
v -0.098017140 0.040000000 0.995184727
v -0.195090322 0.040000000 0.980785280
v -0.290284677 0.040000000 0.956940336
v -0.382683432 0.040000000 0.923879533
v -0.471396737 0.040000000 0.881921264
v -0.555570233 0.040000000 0.831469612
v -0.634393284 0.040000000 0.773010453
v -0.707106781 0.040000000 0.707106781
v -0.773010453 0.040000000 0.634393284
v -0.831469612 0.040000000 0.555570233
v -0.881921264 0.040000000 0.471396737
v -0.923879533 0.040000000 0.382683432
v -0.956940336 0.040000000 0.290284677
v -0.980785280 0.040000000 0.195090322
v -0.995184727 0.040000000 0.098017140
v -1.000000000 0.040000000 0.000000000
v -0.995184727 0.040000000 -0.098017140
v -0.980785280 0.040000000 -0.195090322
v -0.956940336 0.040000000 -0.290284677
v -0.923879533 0.040000000 -0.382683432
v -0.881921264 0.040000000 -0.471396737
v -0.831469612 0.040000000 -0.555570233
v -0.773010453 0.040000000 -0.634393284
v -0.707106781 0.040000000 -0.707106781
v -0.634393284 0.040000000 -0.773010453
v -0.555570233 0.040000000 -0.831469612
v -0.471396737 0.040000000 -0.881921264
v -0.382683432 0.040000000 -0.923879533
v -0.290284677 0.040000000 -0.956940336
v -0.195090322 0.040000000 -0.980785280
v -0.098017140 0.040000000 -0.995184727
v -0.000000000 0.040000000 -1.000000000
v 0.098017140 0.040000000 -0.995184727
v 0.195090322 0.040000000 -0.980785280
v 0.290284677 0.040000000 -0.956940336
v 0.382683432 0.040000000 -0.923879533
v 0.471396737 0.040000000 -0.881921264
v 0.555570233 0.040000000 -0.831469612
v 0.634393284 0.040000000 -0.773010453
v 0.707106781 0.040000000 -0.707106781
v 0.773010453 0.040000000 -0.634393284
v 0.831469612 0.040000000 -0.555570233
v 0.881921264 0.040000000 -0.471396737
v 0.923879533 0.040000000 -0.382683432
v 0.956940336 0.040000000 -0.290284677
v 0.980785280 0.040000000 -0.195090322
v 0.995184727 0.040000000 -0.098017140
v 1.000000000 0.160000000 0.000000000
v 0.995184727 0.160000000 0.098017140
v 0.980785280 0.160000000 0.195090322
v 0.956940336 0.160000000 0.290284677
v 0.923879533 0.160000000 0.382683432
v 0.881921264 0.160000000 0.471396737
v 0.831469612 0.160000000 0.555570233
v 0.773010453 0.160000000 0.634393284
v 0.707106781 0.160000000 0.707106781
v 0.634393284 0.160000000 0.773010453
v 0.555570233 0.160000000 0.831469612
v 0.471396737 0.160000000 0.881921264
v 0.382683432 0.160000000 0.923879533
v 0.290284677 0.160000000 0.956940336
v 0.195090322 0.160000000 0.980785280
v 0.098017140 0.160000000 0.995184727
v 0.000000000 0.160000000 1.000000000
v -0.098017140 0.160000000 0.995184727
v -0.195090322 0.160000000 0.980785280
v -0.290284677 0.160000000 0.956940336
v -0.382683432 0.160000000 0.923879533
v -0.471396737 0.160000000 0.881921264
v -0.555570233 0.160000000 0.831469612
v -0.634393284 0.160000000 0.773010453
v -0.707106781 0.160000000 0.707106781
v -0.773010453 0.160000000 0.634393284
v -0.831469612 0.160000000 0.555570233
v -0.881921264 0.160000000 0.471396737
v -0.923879533 0.160000000 0.382683432
v -0.956940336 0.160000000 0.290284677
v -0.980785280 0.160000000 0.195090322
v -0.995184727 0.160000000 0.098017140
v -1.000000000 0.160000000 0.000000000
v -0.995184727 0.160000000 -0.098017140
v -0.980785280 0.160000000 -0.195090322
v -0.956940336 0.160000000 -0.290284677
v -0.923879533 0.160000000 -0.382683432
v -0.881921264 0.160000000 -0.471396737
v -0.831469612 0.160000000 -0.555570233
v -0.773010453 0.160000000 -0.634393284
v -0.707106781 0.160000000 -0.707106781
v -0.634393284 0.160000000 -0.773010453
v -0.555570233 0.160000000 -0.831469612
v -0.471396737 0.160000000 -0.881921264
v -0.382683432 0.160000000 -0.923879533
v -0.290284677 0.160000000 -0.956940336
v -0.195090322 0.160000000 -0.980785280
v -0.098017140 0.160000000 -0.995184727
v -0.000000000 0.160000000 -1.000000000
v 0.098017140 0.160000000 -0.995184727
v 0.195090322 0.160000000 -0.980785280
v 0.290284677 0.160000000 -0.956940336
v 0.382683432 0.160000000 -0.923879533
v 0.471396737 0.160000000 -0.881921264
v 0.555570233 0.160000000 -0.831469612
v 0.634393284 0.160000000 -0.773010453
v 0.707106781 0.160000000 -0.707106781
v 0.773010453 0.160000000 -0.634393284
v 0.831469612 0.160000000 -0.555570233
v 0.881921264 0.160000000 -0.471396737
v 0.923879533 0.160000000 -0.382683432
v 0.956940336 0.160000000 -0.290284677
v 0.980785280 0.160000000 -0.195090322
v 0.995184727 0.160000000 -0.098017140
v 0.950000000 0.200000000 0.000000000
v 0.945425490 0.200000000 0.093116283
v 0.931746016 0.200000000 0.185335806
v 0.909093319 0.200000000 0.275770443
v 0.877685556 0.200000000 0.363549261
v 0.837825201 0.200000000 0.447826900
v 0.789896132 0.200000000 0.527791721
v 0.734359931 0.200000000 0.602673620
v 0.671751442 0.200000000 0.671751442
v 0.602673620 0.200000000 0.734359931
v 0.527791721 0.200000000 0.789896132
v 0.447826900 0.200000000 0.837825201
v 0.363549261 0.200000000 0.877685556
v 0.275770443 0.200000000 0.909093319
v 0.185335806 0.200000000 0.931746016
v 0.093116283 0.200000000 0.945425490
v 0.000000000 0.200000000 0.950000000
v -0.093116283 0.200000000 0.945425490
v -0.185335806 0.200000000 0.931746016
v -0.275770443 0.200000000 0.909093319
v -0.363549261 0.200000000 0.877685556
v -0.447826900 0.200000000 0.837825201
v -0.527791721 0.200000000 0.789896132
v -0.602673620 0.200000000 0.734359931
v -0.671751442 0.200000000 0.671751442
v -0.734359931 0.200000000 0.602673620
v -0.789896132 0.200000000 0.527791721
v -0.837825201 0.200000000 0.447826900
v -0.877685556 0.200000000 0.363549261
v -0.909093319 0.200000000 0.275770443
v -0.931746016 0.200000000 0.185335806
v -0.945425490 0.200000000 0.093116283
v -0.950000000 0.200000000 0.000000000
v -0.945425490 0.200000000 -0.093116283
v -0.931746016 0.200000000 -0.185335806
v -0.909093319 0.200000000 -0.275770443
v -0.877685556 0.200000000 -0.363549261
v -0.837825201 0.200000000 -0.447826900
v -0.789896132 0.200000000 -0.527791721
v -0.734359931 0.200000000 -0.602673620
v -0.671751442 0.200000000 -0.671751442
v -0.602673620 0.200000000 -0.734359931
v -0.527791721 0.200000000 -0.789896132
v -0.447826900 0.200000000 -0.837825201
v -0.363549261 0.200000000 -0.877685556
v -0.275770443 0.200000000 -0.909093319
v -0.185335806 0.200000000 -0.931746016
v -0.093116283 0.200000000 -0.945425490
v -0.000000000 0.200000000 -0.950000000
v 0.093116283 0.200000000 -0.945425490
v 0.185335806 0.200000000 -0.931746016
v 0.275770443 0.200000000 -0.909093319
v 0.363549261 0.200000000 -0.877685556
v 0.447826900 0.200000000 -0.837825201
v 0.527791721 0.200000000 -0.789896132
v 0.602673620 0.200000000 -0.734359931
v 0.671751442 0.200000000 -0.671751442
v 0.734359931 0.200000000 -0.602673620
v 0.789896132 0.200000000 -0.527791721
v 0.837825201 0.200000000 -0.447826900
v 0.877685556 0.200000000 -0.363549261
v 0.909093319 0.200000000 -0.275770443
v 0.931746016 0.200000000 -0.185335806
v 0.945425490 0.200000000 -0.093116283
v 0.000000000 0.200000000 0.000000000
v 0.000000000 0.200000000 0.000000000
v 0.000000000 0.200000000 0.000000000
v 0.000000000 0.200000000 0.000000000
v 0.000000000 0.200000000 0.000000000
v 0.000000000 0.200000000 0.000000000
v 0.000000000 0.200000000 0.000000000
v 0.000000000 0.200000000 0.000000000
v 0.000000000 0.200000000 0.000000000
v 0.000000000 0.200000000 0.000000000
v 0.000000000 0.200000000 0.000000000
v 0.000000000 0.200000000 0.000000000
v 0.000000000 0.200000000 0.000000000
v 0.000000000 0.200000000 0.000000000
v 0.000000000 0.200000000 0.000000000
v 0.000000000 0.200000000 0.000000000
v 0.000000000 0.200000000 0.000000000
v -0.000000000 0.200000000 0.000000000
v -0.000000000 0.200000000 0.000000000
v -0.000000000 0.200000000 0.000000000
v -0.000000000 0.200000000 0.000000000
v -0.000000000 0.200000000 0.000000000
v -0.000000000 0.200000000 0.000000000
v -0.000000000 0.200000000 0.000000000
v -0.000000000 0.200000000 0.000000000
v -0.000000000 0.200000000 0.000000000
v -0.000000000 0.200000000 0.000000000
v -0.000000000 0.200000000 0.000000000
v -0.000000000 0.200000000 0.000000000
v -0.000000000 0.200000000 0.000000000
v -0.000000000 0.200000000 0.000000000
v -0.000000000 0.200000000 0.000000000
v -0.000000000 0.200000000 0.000000000
v -0.000000000 0.200000000 -0.000000000
v -0.000000000 0.200000000 -0.000000000
v -0.000000000 0.200000000 -0.000000000
v -0.000000000 0.200000000 -0.000000000
v -0.000000000 0.200000000 -0.000000000
v -0.000000000 0.200000000 -0.000000000
v -0.000000000 0.200000000 -0.000000000
v -0.000000000 0.200000000 -0.000000000
v -0.000000000 0.200000000 -0.000000000
v -0.000000000 0.200000000 -0.000000000
v -0.000000000 0.200000000 -0.000000000
v -0.000000000 0.200000000 -0.000000000
v -0.000000000 0.200000000 -0.000000000
v -0.000000000 0.200000000 -0.000000000
v -0.000000000 0.200000000 -0.000000000
v -0.000000000 0.200000000 -0.000000000
v 0.000000000 0.200000000 -0.000000000
v 0.000000000 0.200000000 -0.000000000
v 0.000000000 0.200000000 -0.000000000
v 0.000000000 0.200000000 -0.000000000
v 0.000000000 0.200000000 -0.000000000
v 0.000000000 0.200000000 -0.000000000
v 0.000000000 0.200000000 -0.000000000
v 0.000000000 0.200000000 -0.000000000
v 0.000000000 0.200000000 -0.000000000
v 0.000000000 0.200000000 -0.000000000
v 0.000000000 0.200000000 -0.000000000
v 0.000000000 0.200000000 -0.000000000
v 0.000000000 0.200000000 -0.000000000
v 0.000000000 0.200000000 -0.000000000
v 0.000000000 0.200000000 -0.000000000
f 1 65 66
f 1 66 2
f 2 66 67
f 2 67 3
f 3 67 68
f 3 68 4
f 4 68 69
f 4 69 5
f 5 69 70
f 5 70 6
f 6 70 71
f 6 71 7
f 7 71 72
f 7 72 8
f 8 72 73
f 8 73 9
f 9 73 74
f 9 74 10
f 10 74 75
f 10 75 11
f 11 75 76
f 11 76 12
f 12 76 77
f 12 77 13
f 13 77 78
f 13 78 14
f 14 78 79
f 14 79 15
f 15 79 80
f 15 80 16
f 16 80 81
f 16 81 17
f 17 81 82
f 17 82 18
f 18 82 83
f 18 83 19
f 19 83 84
f 19 84 20
f 20 84 85
f 20 85 21
f 21 85 86
f 21 86 22
f 22 86 87
f 22 87 23
f 23 87 88
f 23 88 24
f 24 88 89
f 24 89 25
f 25 89 90
f 25 90 26
f 26 90 91
f 26 91 27
f 27 91 92
f 27 92 28
f 28 92 93
f 28 93 29
f 29 93 94
f 29 94 30
f 30 94 95
f 30 95 31
f 31 95 96
f 31 96 32
f 32 96 97
f 32 97 33
f 33 97 98
f 33 98 34
f 34 98 99
f 34 99 35
f 35 99 100
f 35 100 36
f 36 100 101
f 36 101 37
f 37 101 102
f 37 102 38
f 38 102 103
f 38 103 39
f 39 103 104
f 39 104 40
f 40 104 105
f 40 105 41
f 41 105 106
f 41 106 42
f 42 106 107
f 42 107 43
f 43 107 108
f 43 108 44
f 44 108 109
f 44 109 45
f 45 109 110
f 45 110 46
f 46 110 111
f 46 111 47
f 47 111 112
f 47 112 48
f 48 112 113
f 48 113 49
f 49 113 114
f 49 114 50
f 50 114 115
f 50 115 51
f 51 115 116
f 51 116 52
f 52 116 117
f 52 117 53
f 53 117 118
f 53 118 54
f 54 118 119
f 54 119 55
f 55 119 120
f 55 120 56
f 56 120 121
f 56 121 57
f 57 121 122
f 57 122 58
f 58 122 123
f 58 123 59
f 59 123 124
f 59 124 60
f 60 124 125
f 60 125 61
f 61 125 126
f 61 126 62
f 62 126 127
f 62 127 63
f 63 127 128
f 63 128 64
f 64 128 65
f 64 65 1
f 65 129 130
f 65 130 66
f 66 130 131
f 66 131 67
f 67 131 132
f 67 132 68
f 68 132 133
f 68 133 69
f 69 133 134
f 69 134 70
f 70 134 135
f 70 135 71
f 71 135 136
f 71 136 72
f 72 136 137
f 72 137 73
f 73 137 138
f 73 138 74
f 74 138 139
f 74 139 75
f 75 139 140
f 75 140 76
f 76 140 141
f 76 141 77
f 77 141 142
f 77 142 78
f 78 142 143
f 78 143 79
f 79 143 144
f 79 144 80
f 80 144 145
f 80 145 81
f 81 145 146
f 81 146 82
f 82 146 147
f 82 147 83
f 83 147 148
f 83 148 84
f 84 148 149
f 84 149 85
f 85 149 150
f 85 150 86
f 86 150 151
f 86 151 87
f 87 151 152
f 87 152 88
f 88 152 153
f 88 153 89
f 89 153 154
f 89 154 90
f 90 154 155
f 90 155 91
f 91 155 156
f 91 156 92
f 92 156 157
f 92 157 93
f 93 157 158
f 93 158 94
f 94 158 159
f 94 159 95
f 95 159 160
f 95 160 96
f 96 160 161
f 96 161 97
f 97 161 162
f 97 162 98
f 98 162 163
f 98 163 99
f 99 163 164
f 99 164 100
f 100 164 165
f 100 165 101
f 101 165 166
f 101 166 102
f 102 166 167
f 102 167 103
f 103 167 168
f 103 168 104
f 104 168 169
f 104 169 105
f 105 169 170
f 105 170 106
f 106 170 171
f 106 171 107
f 107 171 172
f 107 172 108
f 108 172 173
f 108 173 109
f 109 173 174
f 109 174 110
f 110 174 175
f 110 175 111
f 111 175 176
f 111 176 112
f 112 176 177
f 112 177 113
f 113 177 178
f 113 178 114
f 114 178 179
f 114 179 115
f 115 179 180
f 115 180 116
f 116 180 181
f 116 181 117
f 117 181 182
f 117 182 118
f 118 182 183
f 118 183 119
f 119 183 184
f 119 184 120
f 120 184 185
f 120 185 121
f 121 185 186
f 121 186 122
f 122 186 187
f 122 187 123
f 123 187 188
f 123 188 124
f 124 188 189
f 124 189 125
f 125 189 190
f 125 190 126
f 126 190 191
f 126 191 127
f 127 191 192
f 127 192 128
f 128 192 129
f 128 129 65
f 129 193 194
f 129 194 130
f 130 194 195
f 130 195 131
f 131 195 196
f 131 196 132
f 132 196 197
f 132 197 133
f 133 197 198
f 133 198 134
f 134 198 199
f 134 199 135
f 135 199 200
f 135 200 136
f 136 200 201
f 136 201 137
f 137 201 202
f 137 202 138
f 138 202 203
f 138 203 139
f 139 203 204
f 139 204 140
f 140 204 205
f 140 205 141
f 141 205 206
f 141 206 142
f 142 206 207
f 142 207 143
f 143 207 208
f 143 208 144
f 144 208 209
f 144 209 145
f 145 209 210
f 145 210 146
f 146 210 211
f 146 211 147
f 147 211 212
f 147 212 148
f 148 212 213
f 148 213 149
f 149 213 214
f 149 214 150
f 150 214 215
f 150 215 151
f 151 215 216
f 151 216 152
f 152 216 217
f 152 217 153
f 153 217 218
f 153 218 154
f 154 218 219
f 154 219 155
f 155 219 220
f 155 220 156
f 156 220 221
f 156 221 157
f 157 221 222
f 157 222 158
f 158 222 223
f 158 223 159
f 159 223 224
f 159 224 160
f 160 224 225
f 160 225 161
f 161 225 226
f 161 226 162
f 162 226 227
f 162 227 163
f 163 227 228
f 163 228 164
f 164 228 229
f 164 229 165
f 165 229 230
f 165 230 166
f 166 230 231
f 166 231 167
f 167 231 232
f 167 232 168
f 168 232 233
f 168 233 169
f 169 233 234
f 169 234 170
f 170 234 235
f 170 235 171
f 171 235 236
f 171 236 172
f 172 236 237
f 172 237 173
f 173 237 238
f 173 238 174
f 174 238 239
f 174 239 175
f 175 239 240
f 175 240 176
f 176 240 241
f 176 241 177
f 177 241 242
f 177 242 178
f 178 242 243
f 178 243 179
f 179 243 244
f 179 244 180
f 180 244 245
f 180 245 181
f 181 245 246
f 181 246 182
f 182 246 247
f 182 247 183
f 183 247 248
f 183 248 184
f 184 248 249
f 184 249 185
f 185 249 250
f 185 250 186
f 186 250 251
f 186 251 187
f 187 251 252
f 187 252 188
f 188 252 253
f 188 253 189
f 189 253 254
f 189 254 190
f 190 254 255
f 190 255 191
f 191 255 256
f 191 256 192
f 192 256 193
f 192 193 129
f 193 257 258
f 193 258 194
f 194 258 259
f 194 259 195
f 195 259 260
f 195 260 196
f 196 260 261
f 196 261 197
f 197 261 262
f 197 262 198
f 198 262 263
f 198 263 199
f 199 263 264
f 199 264 200
f 200 264 265
f 200 265 201
f 201 265 266
f 201 266 202
f 202 266 267
f 202 267 203
f 203 267 268
f 203 268 204
f 204 268 269
f 204 269 205
f 205 269 270
f 205 270 206
f 206 270 271
f 206 271 207
f 207 271 272
f 207 272 208
f 208 272 273
f 208 273 209
f 209 273 274
f 209 274 210
f 210 274 275
f 210 275 211
f 211 275 276
f 211 276 212
f 212 276 277
f 212 277 213
f 213 277 278
f 213 278 214
f 214 278 279
f 214 279 215
f 215 279 280
f 215 280 216
f 216 280 281
f 216 281 217
f 217 281 282
f 217 282 218
f 218 282 283
f 218 283 219
f 219 283 284
f 219 284 220
f 220 284 285
f 220 285 221
f 221 285 286
f 221 286 222
f 222 286 287
f 222 287 223
f 223 287 288
f 223 288 224
f 224 288 289
f 224 289 225
f 225 289 290
f 225 290 226
f 226 290 291
f 226 291 227
f 227 291 292
f 227 292 228
f 228 292 293
f 228 293 229
f 229 293 294
f 229 294 230
f 230 294 295
f 230 295 231
f 231 295 296
f 231 296 232
f 232 296 297
f 232 297 233
f 233 297 298
f 233 298 234
f 234 298 299
f 234 299 235
f 235 299 300
f 235 300 236
f 236 300 301
f 236 301 237
f 237 301 302
f 237 302 238
f 238 302 303
f 238 303 239
f 239 303 304
f 239 304 240
f 240 304 305
f 240 305 241
f 241 305 306
f 241 306 242
f 242 306 307
f 242 307 243
f 243 307 308
f 243 308 244
f 244 308 309
f 244 309 245
f 245 309 310
f 245 310 246
f 246 310 311
f 246 311 247
f 247 311 312
f 247 312 248
f 248 312 313
f 248 313 249
f 249 313 314
f 249 314 250
f 250 314 315
f 250 315 251
f 251 315 316
f 251 316 252
f 252 316 317
f 252 317 253
f 253 317 318
f 253 318 254
f 254 318 319
f 254 319 255
f 255 319 320
f 255 320 256
f 256 320 257
f 256 257 193
f 257 321 322
f 257 322 258
f 258 322 323
f 258 323 259
f 259 323 324
f 259 324 260
f 260 324 325
f 260 325 261
f 261 325 326
f 261 326 262
f 262 326 327
f 262 327 263
f 263 327 328
f 263 328 264
f 264 328 329
f 264 329 265
f 265 329 330
f 265 330 266
f 266 330 331
f 266 331 267
f 267 331 332
f 267 332 268
f 268 332 333
f 268 333 269
f 269 333 334
f 269 334 270
f 270 334 335
f 270 335 271
f 271 335 336
f 271 336 272
f 272 336 337
f 272 337 273
f 273 337 338
f 273 338 274
f 274 338 339
f 274 339 275
f 275 339 340
f 275 340 276
f 276 340 341
f 276 341 277
f 277 341 342
f 277 342 278
f 278 342 343
f 278 343 279
f 279 343 344
f 279 344 280
f 280 344 345
f 280 345 281
f 281 345 346
f 281 346 282
f 282 346 347
f 282 347 283
f 283 347 348
f 283 348 284
f 284 348 349
f 284 349 285
f 285 349 350
f 285 350 286
f 286 350 351
f 286 351 287
f 287 351 352
f 287 352 288
f 288 352 353
f 288 353 289
f 289 353 354
f 289 354 290
f 290 354 355
f 290 355 291
f 291 355 356
f 291 356 292
f 292 356 357
f 292 357 293
f 293 357 358
f 293 358 294
f 294 358 359
f 294 359 295
f 295 359 360
f 295 360 296
f 296 360 361
f 296 361 297
f 297 361 362
f 297 362 298
f 298 362 363
f 298 363 299
f 299 363 364
f 299 364 300
f 300 364 365
f 300 365 301
f 301 365 366
f 301 366 302
f 302 366 367
f 302 367 303
f 303 367 368
f 303 368 304
f 304 368 369
f 304 369 305
f 305 369 370
f 305 370 306
f 306 370 371
f 306 371 307
f 307 371 372
f 307 372 308
f 308 372 373
f 308 373 309
f 309 373 374
f 309 374 310
f 310 374 375
f 310 375 311
f 311 375 376
f 311 376 312
f 312 376 377
f 312 377 313
f 313 377 378
f 313 378 314
f 314 378 379
f 314 379 315
f 315 379 380
f 315 380 316
f 316 380 381
f 316 381 317
f 317 381 382
f 317 382 318
f 318 382 383
f 318 383 319
f 319 383 384
f 319 384 320
f 320 384 321
f 320 321 257
