# Environment refinement; generated mesh, independent corner UV/normal indices
v -4.000000000 4.900000000 -0.500000000
v 3.000000000 4.900000000 -0.500000000
v 3.000000000 4.900000000 3.500000000
v -4.000000000 4.900000000 -0.500000000
v 3.000000000 4.900000000 3.500000000
v -4.000000000 4.900000000 3.500000000
vt 0.000000000 0.000000000
vt 1.000000000 0.000000000
vt 1.000000000 1.000000000
vt 0.000000000 0.000000000
vt 1.000000000 1.000000000
vt 0.000000000 1.000000000
vn 0.000000000 -1.000000000 0.000000000
vn 0.000000000 -1.000000000 0.000000000
vn 0.000000000 -1.000000000 0.000000000
vn 0.000000000 -1.000000000 0.000000000
vn 0.000000000 -1.000000000 0.000000000
vn 0.000000000 -1.000000000 0.000000000
f 1/1/1 2/2/2 3/3/3
f 4/4/4 5/5/5 6/6/6
