# Environment refinement; generated mesh, independent corner UV/normal indices
v -3.080000000 0.800000000 -16.000000000
v -2.690000000 0.800000000 -16.000000000
v -2.690835020 0.825507220 -16.000000000
v -3.080000000 0.800000000 -16.000000000
v -2.690835020 0.825507220 -16.000000000
v -2.693336504 0.850905215 -16.000000000
v -3.080000000 0.800000000 -16.000000000
v -2.693336504 0.850905215 -16.000000000
v -2.697493741 0.876085226 -16.000000000
v -3.080000000 0.800000000 -16.000000000
v -2.697493741 0.876085226 -16.000000000
v -2.703288928 0.900939428 -16.000000000
v -3.080000000 0.800000000 -16.000000000
v -2.703288928 0.900939428 -16.000000000
v -2.710697249 0.925361391 -16.000000000
v -3.080000000 0.800000000 -16.000000000
v -2.710697249 0.925361391 -16.000000000
v -2.719686982 0.949246539 -16.000000000
v -3.080000000 0.800000000 -16.000000000
v -2.719686982 0.949246539 -16.000000000
v -2.730219631 0.972492589 -16.000000000
v -3.080000000 0.800000000 -16.000000000
v -2.730219631 0.972492589 -16.000000000
v -2.742250093 0.995000000 -16.000000000
v -3.080000000 0.800000000 -16.000000000
v -2.742250093 0.995000000 -16.000000000
v -2.755726851 1.016672391 -16.000000000
v -3.080000000 0.800000000 -16.000000000
v -2.755726851 1.016672391 -16.000000000
v -2.770592197 1.037416957 -16.000000000
v -3.080000000 0.800000000 -16.000000000
v -2.770592197 1.037416957 -16.000000000
v -2.786782475 1.057144868 -16.000000000
v -3.080000000 0.800000000 -16.000000000
v -2.786782475 1.057144868 -16.000000000
v -2.804228355 1.075771645 -16.000000000
v -3.080000000 0.800000000 -16.000000000
v -2.804228355 1.075771645 -16.000000000
v -2.822855132 1.093217525 -16.000000000
v -3.080000000 0.800000000 -16.000000000
v -2.822855132 1.093217525 -16.000000000
v -2.842583043 1.109407803 -16.000000000
v -3.080000000 0.800000000 -16.000000000
v -2.842583043 1.109407803 -16.000000000
v -2.863327609 1.124273149 -16.000000000
v -3.080000000 0.800000000 -16.000000000
v -2.863327609 1.124273149 -16.000000000
v -2.885000000 1.137749907 -16.000000000
v -3.080000000 0.800000000 -16.000000000
v -2.885000000 1.137749907 -16.000000000
v -2.907507411 1.149780369 -16.000000000
v -3.080000000 0.800000000 -16.000000000
v -2.907507411 1.149780369 -16.000000000
v -2.930753461 1.160313018 -16.000000000
v -3.080000000 0.800000000 -16.000000000
v -2.930753461 1.160313018 -16.000000000
v -2.954638609 1.169302751 -16.000000000
v -3.080000000 0.800000000 -16.000000000
v -2.954638609 1.169302751 -16.000000000
v -2.979060572 1.176711072 -16.000000000
v -3.080000000 0.800000000 -16.000000000
v -2.979060572 1.176711072 -16.000000000
v -3.003914774 1.182506259 -16.000000000
v -3.080000000 0.800000000 -16.000000000
v -3.003914774 1.182506259 -16.000000000
v -3.029094785 1.186663496 -16.000000000
v -3.080000000 0.800000000 -16.000000000
v -3.029094785 1.186663496 -16.000000000
v -3.054492780 1.189164980 -16.000000000
v -3.080000000 0.800000000 -16.000000000
v -3.054492780 1.189164980 -16.000000000
v -3.080000000 1.190000000 -16.000000000
v -3.080000000 0.800000000 -16.000000000
v -3.080000000 1.190000000 -16.000000000
v -3.105507220 1.189164980 -16.000000000
v -3.080000000 0.800000000 -16.000000000
v -3.105507220 1.189164980 -16.000000000
v -3.130905215 1.186663496 -16.000000000
v -3.080000000 0.800000000 -16.000000000
v -3.130905215 1.186663496 -16.000000000
v -3.156085226 1.182506259 -16.000000000
v -3.080000000 0.800000000 -16.000000000
v -3.156085226 1.182506259 -16.000000000
v -3.180939428 1.176711072 -16.000000000
v -3.080000000 0.800000000 -16.000000000
v -3.180939428 1.176711072 -16.000000000
v -3.205361391 1.169302751 -16.000000000
v -3.080000000 0.800000000 -16.000000000
v -3.205361391 1.169302751 -16.000000000
v -3.229246539 1.160313018 -16.000000000
v -3.080000000 0.800000000 -16.000000000
v -3.229246539 1.160313018 -16.000000000
v -3.252492589 1.149780369 -16.000000000
v -3.080000000 0.800000000 -16.000000000
v -3.252492589 1.149780369 -16.000000000
v -3.275000000 1.137749907 -16.000000000
v -3.080000000 0.800000000 -16.000000000
v -3.275000000 1.137749907 -16.000000000
v -3.296672391 1.124273149 -16.000000000
v -3.080000000 0.800000000 -16.000000000
v -3.296672391 1.124273149 -16.000000000
v -3.317416957 1.109407803 -16.000000000
v -3.080000000 0.800000000 -16.000000000
v -3.317416957 1.109407803 -16.000000000
v -3.337144868 1.093217525 -16.000000000
v -3.080000000 0.800000000 -16.000000000
v -3.337144868 1.093217525 -16.000000000
v -3.355771645 1.075771645 -16.000000000
v -3.080000000 0.800000000 -16.000000000
v -3.355771645 1.075771645 -16.000000000
v -3.373217525 1.057144868 -16.000000000
v -3.080000000 0.800000000 -16.000000000
v -3.373217525 1.057144868 -16.000000000
v -3.389407803 1.037416957 -16.000000000
v -3.080000000 0.800000000 -16.000000000
v -3.389407803 1.037416957 -16.000000000
v -3.404273149 1.016672391 -16.000000000
v -3.080000000 0.800000000 -16.000000000
v -3.404273149 1.016672391 -16.000000000
v -3.417749907 0.995000000 -16.000000000
v -3.080000000 0.800000000 -16.000000000
v -3.417749907 0.995000000 -16.000000000
v -3.429780369 0.972492589 -16.000000000
v -3.080000000 0.800000000 -16.000000000
v -3.429780369 0.972492589 -16.000000000
v -3.440313018 0.949246539 -16.000000000
v -3.080000000 0.800000000 -16.000000000
v -3.440313018 0.949246539 -16.000000000
v -3.449302751 0.925361391 -16.000000000
v -3.080000000 0.800000000 -16.000000000
v -3.449302751 0.925361391 -16.000000000
v -3.456711072 0.900939428 -16.000000000
v -3.080000000 0.800000000 -16.000000000
v -3.456711072 0.900939428 -16.000000000
v -3.462506259 0.876085226 -16.000000000
v -3.080000000 0.800000000 -16.000000000
v -3.462506259 0.876085226 -16.000000000
v -3.466663496 0.850905215 -16.000000000
v -3.080000000 0.800000000 -16.000000000
v -3.466663496 0.850905215 -16.000000000
v -3.469164980 0.825507220 -16.000000000
v -3.080000000 0.800000000 -16.000000000
v -3.469164980 0.825507220 -16.000000000
v -3.470000000 0.800000000 -16.000000000
v -3.080000000 0.800000000 -16.000000000
v -3.470000000 0.800000000 -16.000000000
v -3.469164980 0.774492780 -16.000000000
v -3.080000000 0.800000000 -16.000000000
v -3.469164980 0.774492780 -16.000000000
v -3.466663496 0.749094785 -16.000000000
v -3.080000000 0.800000000 -16.000000000
v -3.466663496 0.749094785 -16.000000000
v -3.462506259 0.723914774 -16.000000000
v -3.080000000 0.800000000 -16.000000000
v -3.462506259 0.723914774 -16.000000000
v -3.456711072 0.699060572 -16.000000000
v -3.080000000 0.800000000 -16.000000000
v -3.456711072 0.699060572 -16.000000000
v -3.449302751 0.674638609 -16.000000000
v -3.080000000 0.800000000 -16.000000000
v -3.449302751 0.674638609 -16.000000000
v -3.440313018 0.650753461 -16.000000000
v -3.080000000 0.800000000 -16.000000000
v -3.440313018 0.650753461 -16.000000000
v -3.429780369 0.627507411 -16.000000000
v -3.080000000 0.800000000 -16.000000000
v -3.429780369 0.627507411 -16.000000000
v -3.417749907 0.605000000 -16.000000000
v -3.080000000 0.800000000 -16.000000000
v -3.417749907 0.605000000 -16.000000000
v -3.404273149 0.583327609 -16.000000000
v -3.080000000 0.800000000 -16.000000000
v -3.404273149 0.583327609 -16.000000000
v -3.389407803 0.562583043 -16.000000000
v -3.080000000 0.800000000 -16.000000000
v -3.389407803 0.562583043 -16.000000000
v -3.373217525 0.542855132 -16.000000000
v -3.080000000 0.800000000 -16.000000000
v -3.373217525 0.542855132 -16.000000000
v -3.355771645 0.524228355 -16.000000000
v -3.080000000 0.800000000 -16.000000000
v -3.355771645 0.524228355 -16.000000000
v -3.337144868 0.506782475 -16.000000000
v -3.080000000 0.800000000 -16.000000000
v -3.337144868 0.506782475 -16.000000000
v -3.317416957 0.490592197 -16.000000000
v -3.080000000 0.800000000 -16.000000000
v -3.317416957 0.490592197 -16.000000000
v -3.296672391 0.475726851 -16.000000000
v -3.080000000 0.800000000 -16.000000000
v -3.296672391 0.475726851 -16.000000000
v -3.275000000 0.462250093 -16.000000000
v -3.080000000 0.800000000 -16.000000000
v -3.275000000 0.462250093 -16.000000000
v -3.252492589 0.450219631 -16.000000000
v -3.080000000 0.800000000 -16.000000000
v -3.252492589 0.450219631 -16.000000000
v -3.229246539 0.439686982 -16.000000000
v -3.080000000 0.800000000 -16.000000000
v -3.229246539 0.439686982 -16.000000000
v -3.205361391 0.430697249 -16.000000000
v -3.080000000 0.800000000 -16.000000000
v -3.205361391 0.430697249 -16.000000000
v -3.180939428 0.423288928 -16.000000000
v -3.080000000 0.800000000 -16.000000000
v -3.180939428 0.423288928 -16.000000000
v -3.156085226 0.417493741 -16.000000000
v -3.080000000 0.800000000 -16.000000000
v -3.156085226 0.417493741 -16.000000000
v -3.130905215 0.413336504 -16.000000000
v -3.080000000 0.800000000 -16.000000000
v -3.130905215 0.413336504 -16.000000000
v -3.105507220 0.410835020 -16.000000000
v -3.080000000 0.800000000 -16.000000000
v -3.105507220 0.410835020 -16.000000000
v -3.080000000 0.410000000 -16.000000000
v -3.080000000 0.800000000 -16.000000000
v -3.080000000 0.410000000 -16.000000000
v -3.054492780 0.410835020 -16.000000000
v -3.080000000 0.800000000 -16.000000000
v -3.054492780 0.410835020 -16.000000000
v -3.029094785 0.413336504 -16.000000000
v -3.080000000 0.800000000 -16.000000000
v -3.029094785 0.413336504 -16.000000000
v -3.003914774 0.417493741 -16.000000000
v -3.080000000 0.800000000 -16.000000000
v -3.003914774 0.417493741 -16.000000000
v -2.979060572 0.423288928 -16.000000000
v -3.080000000 0.800000000 -16.000000000
v -2.979060572 0.423288928 -16.000000000
v -2.954638609 0.430697249 -16.000000000
v -3.080000000 0.800000000 -16.000000000
v -2.954638609 0.430697249 -16.000000000
v -2.930753461 0.439686982 -16.000000000
v -3.080000000 0.800000000 -16.000000000
v -2.930753461 0.439686982 -16.000000000
v -2.907507411 0.450219631 -16.000000000
v -3.080000000 0.800000000 -16.000000000
v -2.907507411 0.450219631 -16.000000000
v -2.885000000 0.462250093 -16.000000000
v -3.080000000 0.800000000 -16.000000000
v -2.885000000 0.462250093 -16.000000000
v -2.863327609 0.475726851 -16.000000000
v -3.080000000 0.800000000 -16.000000000
v -2.863327609 0.475726851 -16.000000000
v -2.842583043 0.490592197 -16.000000000
v -3.080000000 0.800000000 -16.000000000
v -2.842583043 0.490592197 -16.000000000
v -2.822855132 0.506782475 -16.000000000
v -3.080000000 0.800000000 -16.000000000
v -2.822855132 0.506782475 -16.000000000
v -2.804228355 0.524228355 -16.000000000
v -3.080000000 0.800000000 -16.000000000
v -2.804228355 0.524228355 -16.000000000
v -2.786782475 0.542855132 -16.000000000
v -3.080000000 0.800000000 -16.000000000
v -2.786782475 0.542855132 -16.000000000
v -2.770592197 0.562583043 -16.000000000
v -3.080000000 0.800000000 -16.000000000
v -2.770592197 0.562583043 -16.000000000
v -2.755726851 0.583327609 -16.000000000
v -3.080000000 0.800000000 -16.000000000
v -2.755726851 0.583327609 -16.000000000
v -2.742250093 0.605000000 -16.000000000
v -3.080000000 0.800000000 -16.000000000
v -2.742250093 0.605000000 -16.000000000
v -2.730219631 0.627507411 -16.000000000
v -3.080000000 0.800000000 -16.000000000
v -2.730219631 0.627507411 -16.000000000
v -2.719686982 0.650753461 -16.000000000
v -3.080000000 0.800000000 -16.000000000
v -2.719686982 0.650753461 -16.000000000
v -2.710697249 0.674638609 -16.000000000
v -3.080000000 0.800000000 -16.000000000
v -2.710697249 0.674638609 -16.000000000
v -2.703288928 0.699060572 -16.000000000
v -3.080000000 0.800000000 -16.000000000
v -2.703288928 0.699060572 -16.000000000
v -2.697493741 0.723914774 -16.000000000
v -3.080000000 0.800000000 -16.000000000
v -2.697493741 0.723914774 -16.000000000
v -2.693336504 0.749094785 -16.000000000
v -3.080000000 0.800000000 -16.000000000
v -2.693336504 0.749094785 -16.000000000
v -2.690835020 0.774492780 -16.000000000
v -3.080000000 0.800000000 -16.000000000
v -2.690835020 0.774492780 -16.000000000
v -2.690000000 0.800000000 -16.000000000
vt 0.500000000 0.500000000
vt 1.000000000 0.500000000
vt 0.998929462 0.532701565
vt 0.500000000 0.500000000
vt 0.998929462 0.532701565
vt 0.995722431 0.565263096
vt 0.500000000 0.500000000
vt 0.995722431 0.565263096
vt 0.990392640 0.597545161
vt 0.500000000 0.500000000
vt 0.990392640 0.597545161
vt 0.982962913 0.629409523
vt 0.500000000 0.500000000
vt 0.982962913 0.629409523
vt 0.973465065 0.660719733
vt 0.500000000 0.500000000
vt 0.973465065 0.660719733
vt 0.961939766 0.691341716
vt 0.500000000 0.500000000
vt 0.961939766 0.691341716
vt 0.948436371 0.721144345
vt 0.500000000 0.500000000
vt 0.948436371 0.721144345
vt 0.933012702 0.750000000
vt 0.500000000 0.500000000
vt 0.933012702 0.750000000
vt 0.915734806 0.777785117
vt 0.500000000 0.500000000
vt 0.915734806 0.777785117
vt 0.896676670 0.804380715
vt 0.500000000 0.500000000
vt 0.896676670 0.804380715
vt 0.875919904 0.829672908
vt 0.500000000 0.500000000
vt 0.875919904 0.829672908
vt 0.853553391 0.853553391
vt 0.500000000 0.500000000
vt 0.853553391 0.853553391
vt 0.829672908 0.875919904
vt 0.500000000 0.500000000
vt 0.829672908 0.875919904
vt 0.804380715 0.896676670
vt 0.500000000 0.500000000
vt 0.804380715 0.896676670
vt 0.777785117 0.915734806
vt 0.500000000 0.500000000
vt 0.777785117 0.915734806
vt 0.750000000 0.933012702
vt 0.500000000 0.500000000
vt 0.750000000 0.933012702
vt 0.721144345 0.948436371
vt 0.500000000 0.500000000
vt 0.721144345 0.948436371
vt 0.691341716 0.961939766
vt 0.500000000 0.500000000
vt 0.691341716 0.961939766
vt 0.660719733 0.973465065
vt 0.500000000 0.500000000
vt 0.660719733 0.973465065
vt 0.629409523 0.982962913
vt 0.500000000 0.500000000
vt 0.629409523 0.982962913
vt 0.597545161 0.990392640
vt 0.500000000 0.500000000
vt 0.597545161 0.990392640
vt 0.565263096 0.995722431
vt 0.500000000 0.500000000
vt 0.565263096 0.995722431
vt 0.532701565 0.998929462
vt 0.500000000 0.500000000
vt 0.532701565 0.998929462
vt 0.500000000 1.000000000
vt 0.500000000 0.500000000
vt 0.500000000 1.000000000
vt 0.467298435 0.998929462
vt 0.500000000 0.500000000
vt 0.467298435 0.998929462
vt 0.434736904 0.995722431
vt 0.500000000 0.500000000
vt 0.434736904 0.995722431
vt 0.402454839 0.990392640
vt 0.500000000 0.500000000
vt 0.402454839 0.990392640
vt 0.370590477 0.982962913
vt 0.500000000 0.500000000
vt 0.370590477 0.982962913
vt 0.339280267 0.973465065
vt 0.500000000 0.500000000
vt 0.339280267 0.973465065
vt 0.308658284 0.961939766
vt 0.500000000 0.500000000
vt 0.308658284 0.961939766
vt 0.278855655 0.948436371
vt 0.500000000 0.500000000
vt 0.278855655 0.948436371
vt 0.250000000 0.933012702
vt 0.500000000 0.500000000
vt 0.250000000 0.933012702
vt 0.222214883 0.915734806
vt 0.500000000 0.500000000
vt 0.222214883 0.915734806
vt 0.195619285 0.896676670
vt 0.500000000 0.500000000
vt 0.195619285 0.896676670
vt 0.170327092 0.875919904
vt 0.500000000 0.500000000
vt 0.170327092 0.875919904
vt 0.146446609 0.853553391
vt 0.500000000 0.500000000
vt 0.146446609 0.853553391
vt 0.124080096 0.829672908
vt 0.500000000 0.500000000
vt 0.124080096 0.829672908
vt 0.103323330 0.804380715
vt 0.500000000 0.500000000
vt 0.103323330 0.804380715
vt 0.084265194 0.777785117
vt 0.500000000 0.500000000
vt 0.084265194 0.777785117
vt 0.066987298 0.750000000
vt 0.500000000 0.500000000
vt 0.066987298 0.750000000
vt 0.051563629 0.721144345
vt 0.500000000 0.500000000
vt 0.051563629 0.721144345
vt 0.038060234 0.691341716
vt 0.500000000 0.500000000
vt 0.038060234 0.691341716
vt 0.026534935 0.660719733
vt 0.500000000 0.500000000
vt 0.026534935 0.660719733
vt 0.017037087 0.629409523
vt 0.500000000 0.500000000
vt 0.017037087 0.629409523
vt 0.009607360 0.597545161
vt 0.500000000 0.500000000
vt 0.009607360 0.597545161
vt 0.004277569 0.565263096
vt 0.500000000 0.500000000
vt 0.004277569 0.565263096
vt 0.001070538 0.532701565
vt 0.500000000 0.500000000
vt 0.001070538 0.532701565
vt 0.000000000 0.500000000
vt 0.500000000 0.500000000
vt 0.000000000 0.500000000
vt 0.001070538 0.467298435
vt 0.500000000 0.500000000
vt 0.001070538 0.467298435
vt 0.004277569 0.434736904
vt 0.500000000 0.500000000
vt 0.004277569 0.434736904
vt 0.009607360 0.402454839
vt 0.500000000 0.500000000
vt 0.009607360 0.402454839
vt 0.017037087 0.370590477
vt 0.500000000 0.500000000
vt 0.017037087 0.370590477
vt 0.026534935 0.339280267
vt 0.500000000 0.500000000
vt 0.026534935 0.339280267
vt 0.038060234 0.308658284
vt 0.500000000 0.500000000
vt 0.038060234 0.308658284
vt 0.051563629 0.278855655
vt 0.500000000 0.500000000
vt 0.051563629 0.278855655
vt 0.066987298 0.250000000
vt 0.500000000 0.500000000
vt 0.066987298 0.250000000
vt 0.084265194 0.222214883
vt 0.500000000 0.500000000
vt 0.084265194 0.222214883
vt 0.103323330 0.195619285
vt 0.500000000 0.500000000
vt 0.103323330 0.195619285
vt 0.124080096 0.170327092
vt 0.500000000 0.500000000
vt 0.124080096 0.170327092
vt 0.146446609 0.146446609
vt 0.500000000 0.500000000
vt 0.146446609 0.146446609
vt 0.170327092 0.124080096
vt 0.500000000 0.500000000
vt 0.170327092 0.124080096
vt 0.195619285 0.103323330
vt 0.500000000 0.500000000
vt 0.195619285 0.103323330
vt 0.222214883 0.084265194
vt 0.500000000 0.500000000
vt 0.222214883 0.084265194
vt 0.250000000 0.066987298
vt 0.500000000 0.500000000
vt 0.250000000 0.066987298
vt 0.278855655 0.051563629
vt 0.500000000 0.500000000
vt 0.278855655 0.051563629
vt 0.308658284 0.038060234
vt 0.500000000 0.500000000
vt 0.308658284 0.038060234
vt 0.339280267 0.026534935
vt 0.500000000 0.500000000
vt 0.339280267 0.026534935
vt 0.370590477 0.017037087
vt 0.500000000 0.500000000
vt 0.370590477 0.017037087
vt 0.402454839 0.009607360
vt 0.500000000 0.500000000
vt 0.402454839 0.009607360
vt 0.434736904 0.004277569
vt 0.500000000 0.500000000
vt 0.434736904 0.004277569
vt 0.467298435 0.001070538
vt 0.500000000 0.500000000
vt 0.467298435 0.001070538
vt 0.500000000 0.000000000
vt 0.500000000 0.500000000
vt 0.500000000 0.000000000
vt 0.532701565 0.001070538
vt 0.500000000 0.500000000
vt 0.532701565 0.001070538
vt 0.565263096 0.004277569
vt 0.500000000 0.500000000
vt 0.565263096 0.004277569
vt 0.597545161 0.009607360
vt 0.500000000 0.500000000
vt 0.597545161 0.009607360
vt 0.629409523 0.017037087
vt 0.500000000 0.500000000
vt 0.629409523 0.017037087
vt 0.660719733 0.026534935
vt 0.500000000 0.500000000
vt 0.660719733 0.026534935
vt 0.691341716 0.038060234
vt 0.500000000 0.500000000
vt 0.691341716 0.038060234
vt 0.721144345 0.051563629
vt 0.500000000 0.500000000
vt 0.721144345 0.051563629
vt 0.750000000 0.066987298
vt 0.500000000 0.500000000
vt 0.750000000 0.066987298
vt 0.777785117 0.084265194
vt 0.500000000 0.500000000
vt 0.777785117 0.084265194
vt 0.804380715 0.103323330
vt 0.500000000 0.500000000
vt 0.804380715 0.103323330
vt 0.829672908 0.124080096
vt 0.500000000 0.500000000
vt 0.829672908 0.124080096
vt 0.853553391 0.146446609
vt 0.500000000 0.500000000
vt 0.853553391 0.146446609
vt 0.875919904 0.170327092
vt 0.500000000 0.500000000
vt 0.875919904 0.170327092
vt 0.896676670 0.195619285
vt 0.500000000 0.500000000
vt 0.896676670 0.195619285
vt 0.915734806 0.222214883
vt 0.500000000 0.500000000
vt 0.915734806 0.222214883
vt 0.933012702 0.250000000
vt 0.500000000 0.500000000
vt 0.933012702 0.250000000
vt 0.948436371 0.278855655
vt 0.500000000 0.500000000
vt 0.948436371 0.278855655
vt 0.961939766 0.308658284
vt 0.500000000 0.500000000
vt 0.961939766 0.308658284
vt 0.973465065 0.339280267
vt 0.500000000 0.500000000
vt 0.973465065 0.339280267
vt 0.982962913 0.370590477
vt 0.500000000 0.500000000
vt 0.982962913 0.370590477
vt 0.990392640 0.402454839
vt 0.500000000 0.500000000
vt 0.990392640 0.402454839
vt 0.995722431 0.434736904
vt 0.500000000 0.500000000
vt 0.995722431 0.434736904
vt 0.998929462 0.467298435
vt 0.500000000 0.500000000
vt 0.998929462 0.467298435
vt 1.000000000 0.500000000
vn 0.000000000 0.000000000 1.000000000
vn 0.000000000 0.000000000 1.000000000
vn 0.000000000 0.000000000 1.000000000
vn 0.000000000 0.000000000 1.000000000
vn 0.000000000 0.000000000 1.000000000
vn 0.000000000 0.000000000 1.000000000
vn 0.000000000 0.000000000 1.000000000
vn 0.000000000 0.000000000 1.000000000
vn 0.000000000 0.000000000 1.000000000
vn 0.000000000 0.000000000 1.000000000
vn 0.000000000 0.000000000 1.000000000
vn 0.000000000 0.000000000 1.000000000
vn 0.000000000 0.000000000 1.000000000
vn 0.000000000 0.000000000 1.000000000
vn 0.000000000 0.000000000 1.000000000
vn 0.000000000 0.000000000 1.000000000
vn 0.000000000 0.000000000 1.000000000
vn 0.000000000 0.000000000 1.000000000
vn 0.000000000 0.000000000 1.000000000
vn 0.000000000 0.000000000 1.000000000
vn 0.000000000 0.000000000 1.000000000
vn 0.000000000 0.000000000 1.000000000
vn 0.000000000 0.000000000 1.000000000
vn 0.000000000 0.000000000 1.000000000
vn 0.000000000 0.000000000 1.000000000
vn 0.000000000 0.000000000 1.000000000
vn 0.000000000 0.000000000 1.000000000
vn 0.000000000 0.000000000 1.000000000
vn 0.000000000 0.000000000 1.000000000
vn 0.000000000 0.000000000 1.000000000
vn 0.000000000 0.000000000 1.000000000
vn 0.000000000 0.000000000 1.000000000
vn 0.000000000 0.000000000 1.000000000
vn 0.000000000 0.000000000 1.000000000
vn 0.000000000 0.000000000 1.000000000
vn 0.000000000 0.000000000 1.000000000
vn 0.000000000 0.000000000 1.000000000
vn 0.000000000 0.000000000 1.000000000
vn 0.000000000 0.000000000 1.000000000
vn 0.000000000 0.000000000 1.000000000
vn 0.000000000 0.000000000 1.000000000
vn 0.000000000 0.000000000 1.000000000
vn 0.000000000 0.000000000 1.000000000
vn 0.000000000 0.000000000 1.000000000
vn 0.000000000 0.000000000 1.000000000
vn 0.000000000 0.000000000 1.000000000
vn 0.000000000 0.000000000 1.000000000
vn 0.000000000 0.000000000 1.000000000
vn 0.000000000 0.000000000 1.000000000
vn 0.000000000 0.000000000 1.000000000
vn 0.000000000 0.000000000 1.000000000
vn 0.000000000 0.000000000 1.000000000
vn 0.000000000 0.000000000 1.000000000
vn 0.000000000 0.000000000 1.000000000
vn 0.000000000 0.000000000 1.000000000
vn 0.000000000 0.000000000 1.000000000
vn 0.000000000 0.000000000 1.000000000
vn 0.000000000 0.000000000 1.000000000
vn 0.000000000 0.000000000 1.000000000
vn 0.000000000 0.000000000 1.000000000
vn 0.000000000 0.000000000 1.000000000
vn 0.000000000 0.000000000 1.000000000
vn 0.000000000 0.000000000 1.000000000
vn 0.000000000 0.000000000 1.000000000
vn 0.000000000 0.000000000 1.000000000
vn 0.000000000 0.000000000 1.000000000
vn 0.000000000 0.000000000 1.000000000
vn 0.000000000 0.000000000 1.000000000
vn 0.000000000 0.000000000 1.000000000
vn 0.000000000 0.000000000 1.000000000
vn 0.000000000 0.000000000 1.000000000
vn 0.000000000 0.000000000 1.000000000
vn 0.000000000 -0.000000000 1.000000000
vn 0.000000000 -0.000000000 1.000000000
vn 0.000000000 -0.000000000 1.000000000
vn 0.000000000 0.000000000 1.000000000
vn 0.000000000 0.000000000 1.000000000
vn 0.000000000 0.000000000 1.000000000
vn 0.000000000 0.000000000 1.000000000
vn 0.000000000 0.000000000 1.000000000
vn 0.000000000 0.000000000 1.000000000
vn 0.000000000 0.000000000 1.000000000
vn 0.000000000 0.000000000 1.000000000
vn 0.000000000 0.000000000 1.000000000
vn 0.000000000 0.000000000 1.000000000
vn 0.000000000 0.000000000 1.000000000
vn 0.000000000 0.000000000 1.000000000
vn 0.000000000 0.000000000 1.000000000
vn 0.000000000 0.000000000 1.000000000
vn 0.000000000 0.000000000 1.000000000
vn 0.000000000 0.000000000 1.000000000
vn 0.000000000 0.000000000 1.000000000
vn 0.000000000 0.000000000 1.000000000
vn 0.000000000 0.000000000 1.000000000
vn 0.000000000 0.000000000 1.000000000
vn 0.000000000 0.000000000 1.000000000
vn 0.000000000 0.000000000 1.000000000
vn 0.000000000 0.000000000 1.000000000
vn 0.000000000 0.000000000 1.000000000
vn 0.000000000 0.000000000 1.000000000
vn 0.000000000 0.000000000 1.000000000
vn 0.000000000 0.000000000 1.000000000
vn 0.000000000 0.000000000 1.000000000
vn 0.000000000 0.000000000 1.000000000
vn 0.000000000 0.000000000 1.000000000
vn 0.000000000 0.000000000 1.000000000
vn 0.000000000 0.000000000 1.000000000
vn 0.000000000 0.000000000 1.000000000
vn 0.000000000 0.000000000 1.000000000
vn 0.000000000 0.000000000 1.000000000
vn 0.000000000 0.000000000 1.000000000
vn 0.000000000 0.000000000 1.000000000
vn 0.000000000 0.000000000 1.000000000
vn 0.000000000 0.000000000 1.000000000
vn 0.000000000 0.000000000 1.000000000
vn 0.000000000 0.000000000 1.000000000
vn 0.000000000 0.000000000 1.000000000
vn 0.000000000 0.000000000 1.000000000
vn 0.000000000 0.000000000 1.000000000
vn 0.000000000 0.000000000 1.000000000
vn 0.000000000 0.000000000 1.000000000
vn 0.000000000 0.000000000 1.000000000
vn 0.000000000 0.000000000 1.000000000
vn 0.000000000 0.000000000 1.000000000
vn 0.000000000 0.000000000 1.000000000
vn 0.000000000 0.000000000 1.000000000
vn 0.000000000 0.000000000 1.000000000
vn 0.000000000 0.000000000 1.000000000
vn 0.000000000 0.000000000 1.000000000
vn 0.000000000 0.000000000 1.000000000
vn 0.000000000 0.000000000 1.000000000
vn 0.000000000 0.000000000 1.000000000
vn 0.000000000 0.000000000 1.000000000
vn 0.000000000 0.000000000 1.000000000
vn 0.000000000 0.000000000 1.000000000
vn 0.000000000 0.000000000 1.000000000
vn 0.000000000 0.000000000 1.000000000
vn 0.000000000 0.000000000 1.000000000
vn 0.000000000 0.000000000 1.000000000
vn 0.000000000 0.000000000 1.000000000
vn 0.000000000 0.000000000 1.000000000
vn 0.000000000 0.000000000 1.000000000
vn 0.000000000 0.000000000 1.000000000
vn 0.000000000 0.000000000 1.000000000
vn 0.000000000 0.000000000 1.000000000
vn 0.000000000 0.000000000 1.000000000
vn 0.000000000 0.000000000 1.000000000
vn 0.000000000 0.000000000 1.000000000
vn 0.000000000 0.000000000 1.000000000
vn 0.000000000 0.000000000 1.000000000
vn 0.000000000 0.000000000 1.000000000
vn 0.000000000 0.000000000 1.000000000
vn 0.000000000 0.000000000 1.000000000
vn 0.000000000 0.000000000 1.000000000
vn 0.000000000 0.000000000 1.000000000
vn 0.000000000 0.000000000 1.000000000
vn 0.000000000 0.000000000 1.000000000
vn 0.000000000 0.000000000 1.000000000
vn 0.000000000 0.000000000 1.000000000
vn 0.000000000 0.000000000 1.000000000
vn 0.000000000 0.000000000 1.000000000
vn 0.000000000 0.000000000 1.000000000
vn 0.000000000 0.000000000 1.000000000
vn 0.000000000 0.000000000 1.000000000
vn 0.000000000 0.000000000 1.000000000
vn 0.000000000 0.000000000 1.000000000
vn 0.000000000 0.000000000 1.000000000
vn 0.000000000 0.000000000 1.000000000
vn 0.000000000 0.000000000 1.000000000
vn 0.000000000 0.000000000 1.000000000
vn 0.000000000 0.000000000 1.000000000
vn 0.000000000 0.000000000 1.000000000
vn 0.000000000 0.000000000 1.000000000
vn 0.000000000 0.000000000 1.000000000
vn 0.000000000 0.000000000 1.000000000
vn 0.000000000 0.000000000 1.000000000
vn 0.000000000 0.000000000 1.000000000
vn 0.000000000 0.000000000 1.000000000
vn 0.000000000 0.000000000 1.000000000
vn 0.000000000 0.000000000 1.000000000
vn 0.000000000 0.000000000 1.000000000
vn 0.000000000 0.000000000 1.000000000
vn 0.000000000 0.000000000 1.000000000
vn 0.000000000 0.000000000 1.000000000
vn 0.000000000 0.000000000 1.000000000
vn 0.000000000 0.000000000 1.000000000
vn 0.000000000 0.000000000 1.000000000
vn 0.000000000 0.000000000 1.000000000
vn 0.000000000 0.000000000 1.000000000
vn 0.000000000 0.000000000 1.000000000
vn 0.000000000 0.000000000 1.000000000
vn 0.000000000 0.000000000 1.000000000
vn 0.000000000 0.000000000 1.000000000
vn 0.000000000 0.000000000 1.000000000
vn 0.000000000 0.000000000 1.000000000
vn 0.000000000 0.000000000 1.000000000
vn 0.000000000 0.000000000 1.000000000
vn 0.000000000 0.000000000 1.000000000
vn 0.000000000 0.000000000 1.000000000
vn 0.000000000 0.000000000 1.000000000
vn 0.000000000 0.000000000 1.000000000
vn 0.000000000 0.000000000 1.000000000
vn 0.000000000 0.000000000 1.000000000
vn 0.000000000 0.000000000 1.000000000
vn 0.000000000 0.000000000 1.000000000
vn 0.000000000 0.000000000 1.000000000
vn 0.000000000 0.000000000 1.000000000
vn 0.000000000 0.000000000 1.000000000
vn 0.000000000 0.000000000 1.000000000
vn 0.000000000 0.000000000 1.000000000
vn 0.000000000 0.000000000 1.000000000
vn 0.000000000 0.000000000 1.000000000
vn 0.000000000 0.000000000 1.000000000
vn 0.000000000 0.000000000 1.000000000
vn 0.000000000 0.000000000 1.000000000
vn 0.000000000 0.000000000 1.000000000
vn 0.000000000 0.000000000 1.000000000
vn 0.000000000 0.000000000 1.000000000
vn 0.000000000 0.000000000 1.000000000
vn 0.000000000 0.000000000 1.000000000
vn 0.000000000 0.000000000 1.000000000
vn 0.000000000 0.000000000 1.000000000
vn 0.000000000 0.000000000 1.000000000
vn 0.000000000 0.000000000 1.000000000
vn 0.000000000 0.000000000 1.000000000
vn 0.000000000 0.000000000 1.000000000
vn 0.000000000 0.000000000 1.000000000
vn 0.000000000 0.000000000 1.000000000
vn 0.000000000 0.000000000 1.000000000
vn 0.000000000 0.000000000 1.000000000
vn 0.000000000 0.000000000 1.000000000
vn 0.000000000 0.000000000 1.000000000
vn 0.000000000 0.000000000 1.000000000
vn 0.000000000 0.000000000 1.000000000
vn 0.000000000 0.000000000 1.000000000
vn 0.000000000 0.000000000 1.000000000
vn 0.000000000 0.000000000 1.000000000
vn 0.000000000 0.000000000 1.000000000
vn 0.000000000 0.000000000 1.000000000
vn 0.000000000 0.000000000 1.000000000
vn 0.000000000 0.000000000 1.000000000
vn 0.000000000 0.000000000 1.000000000
vn 0.000000000 0.000000000 1.000000000
vn 0.000000000 0.000000000 1.000000000
vn 0.000000000 0.000000000 1.000000000
vn 0.000000000 0.000000000 1.000000000
vn 0.000000000 0.000000000 1.000000000
vn 0.000000000 0.000000000 1.000000000
vn 0.000000000 0.000000000 1.000000000
vn 0.000000000 0.000000000 1.000000000
vn 0.000000000 0.000000000 1.000000000
vn 0.000000000 0.000000000 1.000000000
vn 0.000000000 0.000000000 1.000000000
vn 0.000000000 0.000000000 1.000000000
vn 0.000000000 0.000000000 1.000000000
vn 0.000000000 0.000000000 1.000000000
vn 0.000000000 0.000000000 1.000000000
vn 0.000000000 0.000000000 1.000000000
vn 0.000000000 0.000000000 1.000000000
vn 0.000000000 0.000000000 1.000000000
vn 0.000000000 0.000000000 1.000000000
vn 0.000000000 0.000000000 1.000000000
vn 0.000000000 0.000000000 1.000000000
vn 0.000000000 0.000000000 1.000000000
vn 0.000000000 0.000000000 1.000000000
vn 0.000000000 0.000000000 1.000000000
vn 0.000000000 0.000000000 1.000000000
vn 0.000000000 0.000000000 1.000000000
vn 0.000000000 0.000000000 1.000000000
vn 0.000000000 0.000000000 1.000000000
vn 0.000000000 0.000000000 1.000000000
vn 0.000000000 0.000000000 1.000000000
vn 0.000000000 0.000000000 1.000000000
vn 0.000000000 0.000000000 1.000000000
vn 0.000000000 0.000000000 1.000000000
vn 0.000000000 0.000000000 1.000000000
vn 0.000000000 0.000000000 1.000000000
vn 0.000000000 0.000000000 1.000000000
vn 0.000000000 0.000000000 1.000000000
vn 0.000000000 0.000000000 1.000000000
vn 0.000000000 0.000000000 1.000000000
vn 0.000000000 0.000000000 1.000000000
vn 0.000000000 0.000000000 1.000000000
vn 0.000000000 0.000000000 1.000000000
vn 0.000000000 0.000000000 1.000000000
vn 0.000000000 0.000000000 1.000000000
vn 0.000000000 0.000000000 1.000000000
vn 0.000000000 0.000000000 1.000000000
f 1/1/1 2/2/2 3/3/3
f 4/4/4 5/5/5 6/6/6
f 7/7/7 8/8/8 9/9/9
f 10/10/10 11/11/11 12/12/12
f 13/13/13 14/14/14 15/15/15
f 16/16/16 17/17/17 18/18/18
f 19/19/19 20/20/20 21/21/21
f 22/22/22 23/23/23 24/24/24
f 25/25/25 26/26/26 27/27/27
f 28/28/28 29/29/29 30/30/30
f 31/31/31 32/32/32 33/33/33
f 34/34/34 35/35/35 36/36/36
f 37/37/37 38/38/38 39/39/39
f 40/40/40 41/41/41 42/42/42
f 43/43/43 44/44/44 45/45/45
f 46/46/46 47/47/47 48/48/48
f 49/49/49 50/50/50 51/51/51
f 52/52/52 53/53/53 54/54/54
f 55/55/55 56/56/56 57/57/57
f 58/58/58 59/59/59 60/60/60
f 61/61/61 62/62/62 63/63/63
f 64/64/64 65/65/65 66/66/66
f 67/67/67 68/68/68 69/69/69
f 70/70/70 71/71/71 72/72/72
f 73/73/73 74/74/74 75/75/75
f 76/76/76 77/77/77 78/78/78
f 79/79/79 80/80/80 81/81/81
f 82/82/82 83/83/83 84/84/84
f 85/85/85 86/86/86 87/87/87
f 88/88/88 89/89/89 90/90/90
f 91/91/91 92/92/92 93/93/93
f 94/94/94 95/95/95 96/96/96
f 97/97/97 98/98/98 99/99/99
f 100/100/100 101/101/101 102/102/102
f 103/103/103 104/104/104 105/105/105
f 106/106/106 107/107/107 108/108/108
f 109/109/109 110/110/110 111/111/111
f 112/112/112 113/113/113 114/114/114
f 115/115/115 116/116/116 117/117/117
f 118/118/118 119/119/119 120/120/120
f 121/121/121 122/122/122 123/123/123
f 124/124/124 125/125/125 126/126/126
f 127/127/127 128/128/128 129/129/129
f 130/130/130 131/131/131 132/132/132
f 133/133/133 134/134/134 135/135/135
f 136/136/136 137/137/137 138/138/138
f 139/139/139 140/140/140 141/141/141
f 142/142/142 143/143/143 144/144/144
f 145/145/145 146/146/146 147/147/147
f 148/148/148 149/149/149 150/150/150
f 151/151/151 152/152/152 153/153/153
f 154/154/154 155/155/155 156/156/156
f 157/157/157 158/158/158 159/159/159
f 160/160/160 161/161/161 162/162/162
f 163/163/163 164/164/164 165/165/165
f 166/166/166 167/167/167 168/168/168
f 169/169/169 170/170/170 171/171/171
f 172/172/172 173/173/173 174/174/174
f 175/175/175 176/176/176 177/177/177
f 178/178/178 179/179/179 180/180/180
f 181/181/181 182/182/182 183/183/183
f 184/184/184 185/185/185 186/186/186
f 187/187/187 188/188/188 189/189/189
f 190/190/190 191/191/191 192/192/192
f 193/193/193 194/194/194 195/195/195
f 196/196/196 197/197/197 198/198/198
f 199/199/199 200/200/200 201/201/201
f 202/202/202 203/203/203 204/204/204
f 205/205/205 206/206/206 207/207/207
f 208/208/208 209/209/209 210/210/210
f 211/211/211 212/212/212 213/213/213
f 214/214/214 215/215/215 216/216/216
f 217/217/217 218/218/218 219/219/219
f 220/220/220 221/221/221 222/222/222
f 223/223/223 224/224/224 225/225/225
f 226/226/226 227/227/227 228/228/228
f 229/229/229 230/230/230 231/231/231
f 232/232/232 233/233/233 234/234/234
f 235/235/235 236/236/236 237/237/237
f 238/238/238 239/239/239 240/240/240
f 241/241/241 242/242/242 243/243/243
f 244/244/244 245/245/245 246/246/246
f 247/247/247 248/248/248 249/249/249
f 250/250/250 251/251/251 252/252/252
f 253/253/253 254/254/254 255/255/255
f 256/256/256 257/257/257 258/258/258
f 259/259/259 260/260/260 261/261/261
f 262/262/262 263/263/263 264/264/264
f 265/265/265 266/266/266 267/267/267
f 268/268/268 269/269/269 270/270/270
f 271/271/271 272/272/272 273/273/273
f 274/274/274 275/275/275 276/276/276
f 277/277/277 278/278/278 279/279/279
f 280/280/280 281/281/281 282/282/282
f 283/283/283 284/284/284 285/285/285
f 286/286/286 287/287/287 288/288/288
