# Environment refinement; generated mesh, independent corner UV/normal indices
v -18.600000000 14.200000000 -24.000000000
v 21.400000000 14.200000000 -24.000000000
v 61.400000000 110.000000000 -24.000000000
v -18.600000000 14.200000000 -24.000000000
v 61.400000000 110.000000000 -24.000000000
v -58.600000000 110.000000000 -24.000000000
vt 0.000000000 0.999900000
vt 1.000000000 0.999900000
vt 1.000000000 0.390000000
vt 0.000000000 0.999900000
vt 1.000000000 0.390000000
vt 0.000000000 0.390000000
vn 0.000000000 0.000000000 1.000000000
vn 0.000000000 0.000000000 1.000000000
vn 0.000000000 0.000000000 1.000000000
vn 0.000000000 -0.000000000 1.000000000
vn 0.000000000 -0.000000000 1.000000000
vn 0.000000000 -0.000000000 1.000000000
f 1/1/1 2/2/2 3/3/3
f 4/4/4 5/5/5 6/6/6
